<?xml version="1.0" encoding="UTF-8" standalone="no"?>
<!-- Created with Inkscape (http://www.inkscape.org/) -->

<svg
   version="1.1"
   id="svg824"
   width="1024"
   height="1024"
   viewBox="0 0 1024 1024"
   sodipodi:docname="4now.svg"
   inkscape:export-filename="D:\4NOW\4now.svg"
   inkscape:export-xdpi="31.573238"
   inkscape:export-ydpi="31.573238"
   inkscape:version="1.1.2 (b8e25be833, 2022-02-05)"
   xmlns:inkscape="http://www.inkscape.org/namespaces/inkscape"
   xmlns:sodipodi="http://sodipodi.sourceforge.net/DTD/sodipodi-0.dtd"
   xmlns="http://www.w3.org/2000/svg"
   xmlns:svg="http://www.w3.org/2000/svg">
  <defs
     id="defs828">
    <clipPath
       clipPathUnits="userSpaceOnUse"
       id="clipPath8337">
      <ellipse
         style="fill:#e9afaf;stroke-width:1.85397;stroke-miterlimit:4;stroke-dasharray:none"
         id="ellipse8339"
         cx="466.1778"
         cy="456.90921"
         rx="258.55478"
         ry="262.78146" />
    </clipPath>
  </defs>
  <sodipodi:namedview
     id="namedview826"
     pagecolor="#ffffff"
     bordercolor="#666666"
     borderopacity="1.0"
     inkscape:pageshadow="2"
     inkscape:pageopacity="0.0"
     inkscape:pagecheckerboard="0"
     showgrid="false"
     inkscape:zoom="1.0620412"
     inkscape:cx="350.73968"
     inkscape:cy="417.59207"
     inkscape:window-width="1920"
     inkscape:window-height="991"
     inkscape:window-x="-9"
     inkscape:window-y="-9"
     inkscape:window-maximized="1"
     inkscape:current-layer="g830" />
  <g
     inkscape:groupmode="layer"
     inkscape:label="Image"
     id="g830">
    <path
       style="fill:#758999"
       d="m 489.94385,2231.7139 c 0.97297,-0.2535 2.32297,-0.2368 3,0.037 0.67703,0.274 -0.11903,0.4814 -1.76903,0.461 -1.65,-0.02 -2.20394,-0.2445 -1.23097,-0.498 z m 25,0 c 0.97297,-0.2535 2.32297,-0.2368 3,0.037 0.67703,0.274 -0.11903,0.4814 -1.76903,0.461 -1.65,-0.02 -2.20394,-0.2445 -1.23097,-0.498 z m -48.45653,-1.9901 c 0.72187,-0.2888 1.58438,-0.2533 1.91667,0.079 0.33229,0.3323 -0.25834,0.5687 -1.3125,0.5252 -1.16495,-0.048 -1.4019,-0.2849 -0.60417,-0.6041 z m 70,0 c 0.72187,-0.2888 1.58438,-0.2533 1.91667,0.079 0.33229,0.3323 -0.25834,0.5687 -1.3125,0.5252 -1.16495,-0.048 -1.4019,-0.2849 -0.60417,-0.6041 z m -53,-20 c 0.72187,-0.2888 1.58438,-0.2533 1.91667,0.079 0.33229,0.3323 -0.25834,0.5687 -1.3125,0.5252 -1.16495,-0.048 -1.4019,-0.2849 -0.60417,-0.6041 z m 38,0 c 0.72187,-0.2888 1.58438,-0.2533 1.91667,0.079 0.33229,0.3323 -0.25834,0.5687 -1.3125,0.5252 -1.16495,-0.048 -1.4019,-0.2849 -0.60417,-0.6041 z m 10,-1 c 0.72187,-0.2888 1.58438,-0.2533 1.91667,0.079 0.33229,0.3323 -0.25834,0.5687 -1.3125,0.5252 -1.16495,-0.048 -1.4019,-0.2849 -0.60417,-0.6041 z m 151.6875,-45.3169 c 0.99549,-1.1 2.03498,-2 2.30998,-2 0.275,0 -0.31449,0.9 -1.30998,2 -0.99549,1.1 -2.03498,2 -2.30998,2 -0.275,0 0.31449,-0.9 1.30998,-2 z m -201.26416,-1.6903 3.73583,-0.4287 0.28589,-30.9408 0.28588,-30.9408 -0.0217,31.2503 -0.0217,31.2503 -4,0.1193 -4,0.1192 z m -86.24506,-8.0145 c -0.26993,-4.5126 -0.13218,-7.844 0.30612,-7.4031 0.43829,0.441 0.65915,4.1331 0.49078,8.2048 l -0.30612,7.4031 z m 74.88166,-0.045 c -1.24387,-1.586 -1.2085,-1.6214 0.37756,-0.3775 0.9625,0.7548 1.75,1.5423 1.75,1.75 0,0.823 -0.82119,0.2933 -2.12756,-1.3725 z m 84.12756,1.3725 c 0,-0.2077 0.7875,-0.9952 1.75,-1.75 1.58606,-1.2439 1.62143,-1.2085 0.37756,0.3775 -1.30637,1.6658 -2.12756,2.1955 -2.12756,1.3725 z m -244.59501,-2.8725 -1.90499,-2.25 2.25,1.905 c 2.11444,1.7902 2.70524,2.595 1.90499,2.595 -0.18976,0 -1.20226,-1.0125 -2.25,-2.25 z m 356.59501,-3.1275 c 0,-0.2077 0.7875,-0.9952 1.75,-1.75 1.58606,-1.2439 1.62143,-1.2085 0.37756,0.3775 -1.30637,1.6658 -2.12756,2.1955 -2.12756,1.3725 z m -294.70429,-3.3666 c 4.28763,-0.1879 11.03763,-0.1868 15,0 3.96236,0.1893 0.45429,0.343 -7.79571,0.3416 -8.25,-0 -11.49193,-0.1562 -7.20429,-0.3441 z m 38.45429,0.082 c 0.6875,-0.2774 1.8125,-0.2774 2.5,0 0.6875,0.2774 0.125,0.5044 -1.25,0.5044 -1.375,0 -1.9375,-0.227 -1.25,-0.5044 z m 48.19617,-5.0878 -3.44617,-3.75 3.75,3.4462 c 2.0625,1.8954 3.75,3.5829 3.75,3.75 0,0.7636 -0.84622,0.044 -4.05383,-3.4462 z m -129.07373,0 c -1.24387,-1.586 -1.2085,-1.6214 0.37756,-0.3775 0.9625,0.7548 1.75,1.5423 1.75,1.75 0,0.823 -0.82119,0.2933 -2.12756,-1.3725 z m 375.12756,1.3725 c 0,-0.2077 0.7875,-0.9952 1.75,-1.75 1.58606,-1.2439 1.62143,-1.2085 0.37756,0.3775 -1.30637,1.6658 -2.12756,2.1955 -2.12756,1.3725 z m -409.12756,-5.3725 c -1.24387,-1.586 -1.2085,-1.6214 0.37756,-0.3775 0.9625,0.7548 1.75,1.5423 1.75,1.75 0,0.823 -0.82119,0.2933 -2.12756,-1.3725 z m 114.94006,-2.9331 c 0.72187,-0.2888 1.58438,-0.2533 1.91667,0.079 0.33229,0.3323 -0.25834,0.5687 -1.3125,0.5252 -1.16495,-0.048 -1.4019,-0.2849 -0.60417,-0.6041 z m 92.4195,-2.3169 c 0,-1.925 0.2058,-2.7125 0.45733,-1.75 0.25152,0.9625 0.25152,2.5375 0,3.5 -0.25153,0.9625 -0.45733,0.175 -0.45733,-1.75 z m 208.768,2.6225 c 0,-0.2077 0.7875,-0.9952 1.75,-1.75 1.58606,-1.2439 1.62143,-1.2085 0.37756,0.3775 -1.30637,1.6658 -2.12756,2.1955 -2.12756,1.3725 z m -248.12756,-7.3725 c -1.24387,-1.586 -1.2085,-1.6214 0.37756,-0.3775 0.9625,0.7548 1.75,1.5423 1.75,1.75 0,0.823 -0.82119,0.2933 -2.12756,-1.3725 z m 229.12756,-3.6275 c 0,-0.2077 0.7875,-0.9952 1.75,-1.75 1.58606,-1.2439 1.62143,-1.2085 0.37756,0.3775 -1.30637,1.6658 -2.12756,2.1955 -2.12756,1.3725 z m -172,-3 c 0,-0.2077 0.7875,-0.9952 1.75,-1.75 1.58606,-1.2439 1.62143,-1.2085 0.37756,0.3775 -1.30637,1.6658 -2.12756,2.1955 -2.12756,1.3725 z m -68.07569,-5.3725 -2.42431,-2.75 2.75,2.4243 c 2.57029,2.2659 3.20859,3.0757 2.42431,3.0757 -0.17912,0 -1.41662,-1.2375 -2.75,-2.75 z m 80.83735,-0.9572 c 1.24391,-0.2392 3.04391,-0.2301 4,0.02 0.95609,0.2503 -0.0617,0.446 -2.26166,0.4349 -2.2,-0.011 -2.98225,-0.2159 -1.73834,-0.4551 z m -20.76166,-5.7928 c 1.29175,-1.375 2.57363,-2.5 2.84863,-2.5 0.275,0 -0.55688,1.125 -1.84863,2.5 -1.29175,1.375 -2.57363,2.5 -2.84863,2.5 -0.275,0 0.55688,-1.125 1.84863,-2.5 z m 43.40499,0.25 -1.90499,-2.25 2.25,1.905 c 2.11444,1.7902 2.70524,2.595 1.90499,2.595 -0.18976,0 -1.20226,-1.0125 -2.25,-2.25 z m -114.53255,-5.5 c -1.24387,-1.586 -1.2085,-1.6214 0.37756,-0.3775 0.9625,0.7548 1.75,1.5423 1.75,1.75 0,0.823 -0.82119,0.2933 -2.12756,-1.3725 z m 68.35956,-27.25 c 0,-1.925 0.2058,-2.7125 0.45733,-1.75 0.25152,0.9625 0.25152,2.5375 0,3.5 -0.25153,0.9625 -0.45733,0.175 -0.45733,-1.75 z m 47.05401,-1.5 c 0.008,-2.75 0.20172,-3.7563 0.43157,-2.2362 0.22986,1.52 0.22371,3.77 -0.0136,5 -0.23736,1.2299 -0.42542,-0.014 -0.41792,-2.7638 z m -192.47351,1.8169 c 0.72187,-0.2888 1.58438,-0.2533 1.91667,0.079 0.33229,0.3323 -0.25834,0.5687 -1.3125,0.5252 -1.16495,-0.048 -1.4019,-0.2849 -0.60417,-0.6041 z m 31.45986,-3.3169 c 0,-2.475 0.19502,-3.4875 0.43337,-2.25 0.23836,1.2375 0.23836,3.2625 0,4.5 -0.23835,1.2375 -0.43337,0.225 -0.43337,-2.25 z m 207.92259,-0.5 c 0.0204,-1.65 0.2445,-2.2039 0.49804,-1.2309 0.25354,0.9729 0.23687,2.3229 -0.0371,3 -0.27393,0.677 -0.48137,-0.1191 -0.46099,-1.7691 z m -263.92592,-21.193 c 0.97297,-0.2535 2.32297,-0.2368 3,0.037 0.67703,0.274 -0.11903,0.4814 -1.76903,0.461 -1.65,-0.02 -2.20394,-0.2445 -1.23097,-0.498 z m 316.54347,-19.9901 c 0.72187,-0.2888 1.58438,-0.2533 1.91667,0.079 0.33229,0.3323 -0.25834,0.5687 -1.3125,0.5252 -1.16495,-0.048 -1.4019,-0.2849 -0.60417,-0.6041 z m -0.0508,-7.0241 c 1.24391,-0.2392 3.04391,-0.2301 4,0.02 0.95609,0.2503 -0.0617,0.446 -2.26166,0.4349 -2.2,-0.011 -2.98225,-0.2159 -1.73834,-0.4551 z m 21.2383,0.3297 c 0,-0.2077 0.7875,-0.9952 1.75,-1.75 1.58606,-1.2439 1.62143,-1.2085 0.37756,0.3775 -1.30637,1.6658 -2.12756,2.1955 -2.12756,1.3725 z m -43.12756,-2.3725 c -1.24387,-1.586 -1.2085,-1.6214 0.37756,-0.3775 0.9625,0.7548 1.75,1.5423 1.75,1.75 0,0.823 -0.82119,0.2933 -2.12756,-1.3725 z m -179.87244,-3.6275 c 0,-0.2077 0.7875,-0.9952 1.75,-1.75 1.58606,-1.2439 1.62143,-1.2085 0.37756,0.3775 -1.30637,1.6658 -2.12756,2.1955 -2.12756,1.3725 z m 183.92431,-2.3725 -2.42431,-2.75 2.75,2.4244 c 1.5125,1.3333 2.75,2.5708 2.75,2.75 0,0.7842 -0.8098,0.1459 -3.07569,-2.4244 z m -274.11181,-2.9331 c 0.72187,-0.2888 1.58438,-0.2533 1.91667,0.079 0.33229,0.3323 -0.25834,0.5687 -1.3125,0.5252 -1.16495,-0.048 -1.4019,-0.2849 -0.60417,-0.6041 z m -22,-2 c 0.72187,-0.2888 1.58438,-0.2533 1.91667,0.079 0.33229,0.3323 -0.25834,0.5687 -1.3125,0.5252 -1.16495,-0.048 -1.4019,-0.2849 -0.60417,-0.6041 z m -17,-2 c 0.72187,-0.2888 1.58438,-0.2533 1.91667,0.079 0.33229,0.3323 -0.25834,0.5687 -1.3125,0.5252 -1.16495,-0.048 -1.4019,-0.2849 -0.60417,-0.6041 z m 297.1875,-0.7578 c 0,-0.7926 0.40803,-1.6932 0.90674,-2.0014 0.49871,-0.3082 0.67122,0.3402 0.38337,1.441 -0.61061,2.3349 -1.29011,2.6301 -1.29011,0.5604 z m -306,-0.6181 c 0,-0.5824 0.45,-0.7809 1,-0.441 0.55,0.34 1,0.8165 1,1.0591 0,0.2425 -0.45,0.4409 -1,0.4409 -0.55,0 -1,-0.4765 -1,-1.059 z m 108.8125,0.3759 c 0.72187,-0.2888 1.58438,-0.2533 1.91667,0.079 0.33229,0.3323 -0.25834,0.5687 -1.3125,0.5252 -1.16495,-0.048 -1.4019,-0.2849 -0.60417,-0.6041 z m 59.96393,-0.05 c 2.35204,-0.2112 5.95204,-0.2082 8,0.01 2.04796,0.2149 0.12357,0.3877 -4.27643,0.3841 -4.4,0 -6.07561,-0.1794 -3.72357,-0.3907 z m -74.37144,-6.5165 -1.90499,-2.25 2.25,1.905 c 2.11444,1.7903 2.70524,2.595 1.90499,2.595 -0.18976,0 -1.20226,-1.0125 -2.25,-2.25 z m -63.59249,0.5669 c 0.72187,-0.2888 1.58438,-0.2533 1.91667,0.079 0.33229,0.3323 -0.25834,0.5687 -1.3125,0.5252 -1.16495,-0.048 -1.4019,-0.2849 -0.60417,-0.6041 z m 254.47351,-3.8169 c 0.008,-2.75 0.20172,-3.7563 0.43157,-2.2362 0.22986,1.52 0.22371,3.77 -0.0136,5 -0.23736,1.2299 -0.42542,-0.014 -0.41792,-2.7638 z m -245.47351,2.8169 c 0.72187,-0.2888 1.58438,-0.2533 1.91667,0.079 0.33229,0.3323 -0.25834,0.5687 -1.3125,0.5252 -1.16495,-0.048 -1.4019,-0.2849 -0.60417,-0.6041 z m 12.26645,-2.9002 c 0.048,-1.1649 0.28494,-1.4019 0.60416,-0.6042 0.28887,0.7219 0.25335,1.5844 -0.0789,1.9167 -0.33229,0.3323 -0.56864,-0.2583 -0.52522,-1.3125 z m 111.67105,-4.0789 c 0.6875,-0.2774 1.8125,-0.2774 2.5,0 0.6875,0.2774 0.125,0.5044 -1.25,0.5044 -1.375,0 -1.9375,-0.227 -1.25,-0.5044 z m -74.75,-2.3378 c 0,-1.1 0.17252,-2 0.38337,-2 0.21085,0 0.61872,0.9 0.90638,2 0.28766,1.1 0.11514,2 -0.38337,2 -0.49851,0 -0.90638,-0.9 -0.90638,-2 z m -20.72764,-3 c 0,-2.475 0.19502,-3.4875 0.43337,-2.25 0.23836,1.2375 0.23836,3.2625 0,4.5 -0.23835,1.2375 -0.43337,0.225 -0.43337,-2.25 z m 153.99139,-3.7175 c 1.52006,-0.2299 3.77006,-0.2237 5,0.014 1.22994,0.2373 -0.0137,0.4254 -2.76375,0.4179 -2.75,-0.01 -3.75631,-0.2017 -2.23625,-0.4316 z m 234.8152,-0.8658 c 0.048,-1.1649 0.2849,-1.4019 0.6042,-0.6042 0.2888,0.7219 0.2533,1.5844 -0.079,1.9167 -0.3323,0.3323 -0.56868,-0.2583 -0.52526,-1.3125 z m -20.884,-2.9167 c 0.0204,-1.65 0.2445,-2.2039 0.49804,-1.2309 0.25354,0.9729 0.23687,2.3229 -0.0371,3 -0.27393,0.677 -0.48137,-0.1191 -0.46099,-1.7691 z m -283.03706,-0.5 c 0,-1.375 0.22698,-1.9375 0.50439,-1.25 0.27741,0.6875 0.27741,1.8125 0,2.5 -0.27741,0.6875 -0.50439,0.125 -0.50439,-1.25 z m -218,-4 c 0,-1.375 0.22698,-1.9375 0.50439,-1.25 0.27741,0.6875 0.27741,1.8125 0,2.5 -0.27741,0.6875 -0.50439,0.125 -0.50439,-1.25 z m 385.4552,-2.1829 c 0.28881,-0.4673 0.94401,-0.5908 1.45601,-0.2743 1.30838,0.8086 1.16106,1.1239 -0.52511,1.1239 -0.80081,0 -1.21971,-0.3823 -0.9309,-0.8496 z m -167.53414,-2.4004 c 0.048,-1.1649 0.28494,-1.4019 0.60416,-0.6042 0.28887,0.7219 0.25335,1.5844 -0.0789,1.9167 -0.33229,0.3323 -0.56864,-0.2583 -0.52522,-1.3125 z m -238.70488,-9.9167 c 0.002,-6.05 0.16696,-8.396 0.36601,-5.2134 0.19905,3.1825 0.1972,8.1325 -0.004,11 -0.20131,2.8674 -0.36417,0.2634 -0.36191,-5.7866 z m 271.89829,-0.5 c 0,-2.475 0.19502,-3.4875 0.43337,-2.25 0.23836,1.2375 0.23836,3.2625 0,4.5 -0.23835,1.2375 -0.43337,0.225 -0.43337,-2.25 z m -147.02236,-2.6893 c 0.9625,-0.2515 2.5375,-0.2515 3.5,0 0.9625,0.2515 0.175,0.4573 -1.75,0.4573 -1.925,0 -2.7125,-0.2058 -1.75,-0.4573 z m -9.5,-0.9729 c 0.6875,-0.2774 1.8125,-0.2774 2.5,0 0.6875,0.2774 0.125,0.5044 -1.25,0.5044 -1.375,0 -1.9375,-0.227 -1.25,-0.5044 z m 272.75,-3.3378 c 0.99549,-1.1 2.03498,-2 2.30998,-2 0.275,0 -0.31449,0.9 -1.30998,2 -0.99549,1.1 -2.03498,2 -2.30998,2 -0.275,0 0.31449,-0.9 1.30998,-2 z m -257.6875,-6.6831 c 0.72187,-0.2888 1.58438,-0.2533 1.91667,0.079 0.33229,0.3323 -0.25834,0.5687 -1.3125,0.5252 -1.16495,-0.048 -1.4019,-0.2849 -0.60417,-0.6041 z m 391.26645,-0.9002 c 0.048,-1.1649 0.28494,-1.4019 0.60416,-0.6042 0.28887,0.7219 0.25335,1.5844 -0.0789,1.9167 -0.33229,0.3323 -0.56864,-0.2583 -0.52522,-1.3125 z m -381.26645,-0.1 c 0.72187,-0.2889 1.58438,-0.2533 1.91667,0.079 0.33229,0.3323 -0.25834,0.5687 -1.3125,0.5252 -1.16495,-0.048 -1.4019,-0.2849 -0.60417,-0.6041 z m 402.34535,-3.3169 c 0,-1.375 0.227,-1.9375 0.5044,-1.25 0.2774,0.6875 0.2774,1.8125 0,2.5 -0.2774,0.6875 -0.5044,0.125 -0.5044,-1.25 z m -374.65785,-3 c 0.33992,-0.55 0.81648,-1 1.05902,-1 0.24254,0 0.44098,0.45 0.44098,1 0,0.55 -0.47656,1 -1.05902,1 -0.58246,0 -0.7809,-0.45 -0.44098,-1 z m -17.5,-3.3129 c 0,-0.1721 1.4625,-1.6346 3.25,-3.25 l 3.25,-2.9371 -2.93709,3.25 c -2.73778,3.0295 -3.56291,3.7097 -3.56291,2.9371 z m 41.25,-2.4033 c 1.5125,-0.2291 3.9875,-0.2291 5.5,0 1.5125,0.2291 0.275,0.4166 -2.75,0.4166 -3.025,0 -4.2625,-0.1875 -2.75,-0.4166 z m 102.5625,-0.9669 c 0.72187,-0.2888 1.58438,-0.2533 1.91667,0.079 0.33229,0.3323 -0.25834,0.5687 -1.3125,0.5252 -1.16495,-0.048 -1.4019,-0.2849 -0.60417,-0.6041 z m 247.26645,-0.9002 c 0.048,-1.1649 0.28494,-1.4019 0.60416,-0.6042 0.28887,0.7219 0.25335,1.5844 -0.0789,1.9167 -0.33229,0.3323 -0.56864,-0.2583 -0.52522,-1.3125 z m -540,-3 c 0.048,-1.1649 0.28494,-1.4019 0.60416,-0.6042 0.28887,0.7219 0.25335,1.5844 -0.0789,1.9167 -0.3323,0.3323 -0.56864,-0.2583 -0.52522,-1.3125 z m 124.67105,-1.0789 c 0.6875,-0.2774 1.8125,-0.2774 2.5,0 0.6875,0.2774 0.125,0.5044 -1.25,0.5044 -1.375,0 -1.9375,-0.227 -1.25,-0.5044 z m -16,-1 c 0.6875,-0.2774 1.8125,-0.2774 2.5,0 0.6875,0.2774 0.125,0.5044 -1.25,0.5044 -1.375,0 -1.9375,-0.227 -1.25,-0.5044 z m -11.9375,-1.0209 c 0.72187,-0.2888 1.58438,-0.2533 1.91667,0.079 0.33229,0.3323 -0.25834,0.5687 -1.3125,0.5252 -1.16495,-0.048 -1.4019,-0.2849 -0.60417,-0.6041 z m -20,-2 c 0.72187,-0.2888 1.58438,-0.2533 1.91667,0.079 0.33229,0.3323 -0.25834,0.5687 -1.3125,0.5252 -1.16495,-0.048 -1.4019,-0.2849 -0.60417,-0.6041 z m -23.8125,-3.2855 c 0,-0.5327 0.675,-0.7096 1.5,-0.393 0.825,0.3166 1.5,0.7525 1.5,0.9686 0,0.2162 -0.675,0.393 -1.5,0.393 -0.825,0 -1.5,-0.4358 -1.5,-0.9686 z m 5.8125,-1.7145 c 0.72187,-0.2888 1.58438,-0.2533 1.91667,0.079 0.33229,0.3323 -0.25834,0.5687 -1.3125,0.5252 -1.16495,-0.048 -1.4019,-0.2849 -0.60417,-0.6041 z m 372.1875,-0.6944 c 0,-0.2077 0.7875,-0.9952 1.75,-1.75 1.58606,-1.2439 1.62143,-1.2085 0.37756,0.3775 -1.30637,1.6658 -2.12756,2.1955 -2.12756,1.3725 z m -341.25,-2.2847 c 0.6875,-0.2774 1.8125,-0.2774 2.5,0 0.6875,0.2774 0.125,0.5044 -1.25,0.5044 -1.375,0 -1.9375,-0.227 -1.25,-0.5044 z m 14,-1 c 0.6875,-0.2774 1.8125,-0.2774 2.5,0 0.6875,0.2774 0.125,0.5044 -1.25,0.5044 -1.375,0 -1.9375,-0.227 -1.25,-0.5044 z m 21.01166,-1.045 c 1.24391,-0.2392 3.04391,-0.2301 4,0.02 0.95609,0.2503 -0.0617,0.446 -2.26166,0.4349 -2.2,-0.011 -2.98225,-0.2159 -1.73834,-0.4551 z m 63.98834,-1.025 c 2.3375,-0.2105 6.1625,-0.2105 8.5,0 2.3375,0.2106 0.425,0.3828 -4.25,0.3828 -4.675,0 -6.5875,-0.1722 -4.25,-0.3828 z m 207.0625,0.049 c 0.72187,-0.2888 1.58438,-0.2533 1.91667,0.079 0.33229,0.3323 -0.25834,0.5687 -1.3125,0.5252 -1.16495,-0.048 -1.4019,-0.2849 -0.60417,-0.6041 z m 38.61226,-20.3169 c 0,-11.825 0.14466,-16.6625 0.32145,-10.75 0.1768,5.9125 0.1768,15.5875 0,21.5 -0.17679,5.9125 -0.32145,1.075 -0.32145,-10.75 z m -128.05047,16.533 c -0.30962,-0.8068 -0.36997,-2.0443 -0.1341,-2.75 0.23587,-0.7056 0.66592,-0.046 0.95566,1.467 0.56574,2.9533 0.099,3.6821 -0.82156,1.283 z m 103.49815,-7.283 c -1.24387,-1.586 -1.2085,-1.6214 0.37756,-0.3775 0.9625,0.7548 1.75,1.5423 1.75,1.75 0,0.823 -0.82119,0.2933 -2.12756,-1.3725 z m -75.62244,-3.9662 c 1.5125,-0.2291 3.9875,-0.2291 5.5,0 1.5125,0.2291 0.275,0.4166 -2.75,0.4166 -3.025,0 -4.2625,-0.1875 -2.75,-0.4166 z m 10.5625,0.033 c 0.72187,-0.2889 1.58438,-0.2534 1.91667,0.079 0.33229,0.3323 -0.25834,0.5686 -1.3125,0.5252 -1.16495,-0.048 -1.4019,-0.2849 -0.60417,-0.6041 z m -160.73355,-5.9002 c 0.048,-1.165 0.28494,-1.4019 0.60416,-0.6042 0.28887,0.7219 0.25335,1.5844 -0.0789,1.9167 -0.33229,0.3323 -0.56864,-0.2584 -0.52522,-1.3125 z m 222.15305,-1.4167 c 0,-1.925 0.2058,-2.7125 0.45733,-1.75 0.25152,0.9625 0.25152,2.5375 0,3.5 -0.25153,0.9625 -0.45733,0.175 -0.45733,-1.75 z m -285.982,-0.6893 c 0.9625,-0.2515 2.5375,-0.2515 3.5,0 0.9625,0.2515 0.175,0.4573 -1.75,0.4573 -1.925,0 -2.7125,-0.2058 -1.75,-0.4573 z m 270.15499,-1.5607 -1.90499,-2.25 2.25,1.905 c 1.2375,1.0478 2.25,2.0603 2.25,2.25 0,0.8003 -0.80479,0.2095 -2.59501,-1.905 z m -291.15499,0.5607 c 0.9625,-0.2515 2.5375,-0.2515 3.5,0 0.9625,0.2515 0.175,0.4573 -1.75,0.4573 -1.925,0 -2.7125,-0.2058 -1.75,-0.4573 z m -16.5,-0.9729 c 0.6875,-0.2774 1.8125,-0.2774 2.5,0 0.6875,0.2774 0.125,0.5044 -1.25,0.5044 -1.375,0 -1.9375,-0.227 -1.25,-0.5044 z m -14,-1 c 0.6875,-0.2774 1.8125,-0.2774 2.5,0 0.6875,0.2774 0.125,0.5044 -1.25,0.5044 -1.375,0 -1.9375,-0.227 -1.25,-0.5044 z m -2.9375,-2.0209 c 0.72187,-0.2888 1.58438,-0.2533 1.91667,0.079 0.33229,0.3323 -0.25834,0.5687 -1.3125,0.5252 -1.16495,-0.048 -1.4019,-0.2849 -0.60417,-0.6041 z m 287.9375,-0.9791 c 0.6875,-0.2774 1.8125,-0.2774 2.5,0 0.6875,0.2774 0.125,0.5044 -1.25,0.5044 -1.375,0 -1.9375,-0.227 -1.25,-0.5044 z m -272.9375,-1.0209 c 0.72187,-0.2888 1.58438,-0.2533 1.91667,0.079 0.33229,0.3323 -0.25834,0.5687 -1.3125,0.5252 -1.16495,-0.048 -1.4019,-0.2849 -0.60417,-0.6041 z m 18.9375,-1.9791 c 0.6875,-0.2774 1.8125,-0.2774 2.5,0 0.6875,0.2774 0.125,0.5044 -1.25,0.5044 -1.375,0 -1.9375,-0.227 -1.25,-0.5044 z m 12.0625,-1.0209 c 0.72187,-0.2888 1.58438,-0.2533 1.91667,0.079 0.33229,0.3323 -0.25834,0.5687 -1.3125,0.5252 -1.16495,-0.048 -1.4019,-0.2849 -0.60417,-0.6041 z m 10.9375,-0.9791 c 0.6875,-0.2774 1.8125,-0.2774 2.5,0 0.6875,0.2774 0.125,0.5044 -1.25,0.5044 -1.375,0 -1.9375,-0.227 -1.25,-0.5044 z m 17.0625,-1.0209 c 0.72187,-0.2888 1.58438,-0.2533 1.91667,0.079 0.33229,0.3323 -0.25834,0.5687 -1.3125,0.5252 -1.16495,-0.048 -1.4019,-0.2849 -0.60417,-0.6041 z m 17.45653,-1.0099 c 0.97297,-0.2535 2.32297,-0.2368 3,0.037 0.67703,0.274 -0.11903,0.4814 -1.76903,0.461 -1.65,-0.02 -2.20394,-0.2445 -1.23097,-0.498 z m 23.99472,-1.0245 c 1.52006,-0.2299 3.77006,-0.2238 5,0.014 1.22994,0.2373 -0.0138,0.4254 -2.76375,0.4179 -2.75,-0.01 -3.75631,-0.2017 -2.23625,-0.4316 z m 130.8152,-1.8658 c 0.048,-1.1649 0.28494,-1.4019 0.60416,-0.6042 0.28887,0.7219 0.25335,1.5844 -0.0789,1.9167 -0.33229,0.3323 -0.56864,-0.2583 -0.52522,-1.3125 z m 25,0 c 0.048,-1.1649 0.28494,-1.4019 0.60416,-0.6042 0.28887,0.7219 0.25335,1.5844 -0.0789,1.9167 -0.33229,0.3323 -0.56864,-0.2583 -0.52522,-1.3125 z m 14.29101,-12.4167 c 0,-5.775 0.16528,-8.1375 0.36728,-5.25 0.202,2.8875 0.202,7.6125 0,10.5 -0.202,2.8875 -0.36728,0.525 -0.36728,-5.25 z m 79.50248,3.25 c -1.24387,-1.586 -1.2085,-1.6214 0.37756,-0.3775 1.66575,1.3064 2.19548,2.1275 1.37244,2.1275 -0.20765,0 -0.99515,-0.7875 -1.75,-1.75 z m -94.71455,-7.25 c 0,-1.375 0.22698,-1.9375 0.50439,-1.25 0.27741,0.6875 0.27741,1.8125 0,2.5 -0.27741,0.6875 -0.50439,0.125 -0.50439,-1.25 z m -145.40789,0.3378 c 0.6875,-0.2774 1.8125,-0.2774 2.5,0 0.6875,0.2774 0.125,0.5044 -1.25,0.5044 -1.375,0 -1.9375,-0.227 -1.25,-0.5044 z m -16.98834,-1.045 c 1.24391,-0.2392 3.04391,-0.2301 4,0.02 0.95609,0.2503 -0.0617,0.446 -2.26166,0.4349 -2.2,-0.011 -2.98225,-0.2159 -1.73834,-0.4551 z m 102.23834,0.3142 c 0,-0.2161 0.69837,-0.661 1.55194,-0.9885 0.88992,-0.3415 1.29132,-0.1739 0.94098,0.393 -0.58726,0.9502 -2.49292,1.4054 -2.49292,0.5955 z m -123.73097,-1.3 c 0.97297,-0.2535 2.32297,-0.2368 3,0.037 0.67703,0.274 -0.11903,0.4814 -1.76903,0.461 -1.65,-0.02 -2.20394,-0.2445 -1.23097,-0.498 z m -62.26903,-5.2756 c 0,-0.5327 0.675,-0.7096 1.5,-0.393 0.825,0.3166 1.5,0.7525 1.5,0.9686 0,0.2162 -0.675,0.393 -1.5,0.393 -0.825,0 -1.5,-0.4358 -1.5,-0.9686 z m 28.8125,-4.7145 c 0.72187,-0.2888 1.58438,-0.2533 1.91667,0.079 0.33229,0.3323 -0.25834,0.5687 -1.3125,0.5252 -1.16495,-0.048 -1.4019,-0.2849 -0.60417,-0.6041 z m 25.45653,-2.0099 c 0.97297,-0.2535 2.32297,-0.2368 3,0.037 0.67703,0.274 -0.11903,0.4814 -1.76903,0.461 -1.65,-0.02 -2.20394,-0.2445 -1.23097,-0.498 z m 19.49263,-1.0142 c 1.24391,-0.2392 3.04391,-0.2301 4,0.02 0.95609,0.2503 -0.0617,0.446 -2.26166,0.4349 -2.2,-0.011 -2.98225,-0.2159 -1.73834,-0.4551 z m 24,-1 c 1.24391,-0.2392 3.04391,-0.2301 4,0.02 0.95609,0.2503 -0.0617,0.446 -2.26166,0.4349 -2.2,-0.011 -2.98225,-0.2159 -1.73834,-0.4551 z m 145.70704,-21.5428 -5.9687,-6.25 6.25,5.9687 c 3.4375,3.2828 6.25,6.0953 6.25,6.25 0,0.7389 -0.98689,-0.1629 -6.5313,-5.9687 z m -133.6562,2.5669 c 0.72187,-0.2888 1.58438,-0.2533 1.91667,0.079 0.33229,0.3323 -0.25834,0.5687 -1.3125,0.5252 -1.16495,-0.048 -1.4019,-0.2849 -0.60417,-0.6041 z m -14.0625,-0.9791 c 0.6875,-0.2774 1.8125,-0.2774 2.5,0 0.6875,0.2774 0.125,0.5044 -1.25,0.5044 -1.375,0 -1.9375,-0.227 -1.25,-0.5044 z m -25.48097,-2.0308 c 0.97297,-0.2535 2.32297,-0.2368 3,0.037 0.67703,0.274 -0.11903,0.4814 -1.76903,0.461 -1.65,-0.02 -2.20394,-0.2445 -1.23097,-0.498 z m -12.51903,-0.9692 c 0.6875,-0.2774 1.8125,-0.2774 2.5,0 0.6875,0.2774 0.125,0.5044 -1.25,0.5044 -1.375,0 -1.9375,-0.227 -1.25,-0.5044 z m 154.0625,-3.0209 c 0.72187,-0.2888 1.58438,-0.2533 1.91667,0.079 0.33229,0.3323 -0.25834,0.5687 -1.3125,0.5252 -1.16495,-0.048 -1.4019,-0.2849 -0.60417,-0.6041 z m 59.52371,-10.3169 c 0,-4.125 0.17651,-5.8125 0.39226,-3.75 0.21574,2.0625 0.21574,5.4375 0,7.5 -0.21575,2.0625 -0.39226,0.375 -0.39226,-3.75 z m -165.52371,3.3169 c 0.72187,-0.2888 1.58438,-0.2533 1.91667,0.079 0.33229,0.3323 -0.25834,0.5687 -1.3125,0.5252 -1.16495,-0.048 -1.4019,-0.2849 -0.60417,-0.6041 z m 195.45986,-6.3169 c 0,-2.475 0.19502,-3.4875 0.43337,-2.25 0.23836,1.2375 0.23836,3.2625 0,4.5 -0.23835,1.2375 -0.43337,0.225 -0.43337,-2.25 z m -82.19341,1.4167 c 0.048,-1.1649 0.28494,-1.4019 0.60416,-0.6042 0.28887,0.7219 0.25335,1.5844 -0.0789,1.9167 -0.33229,0.3323 -0.56864,-0.2583 -0.52522,-1.3125 z m 14.17323,-2.9167 c 0.0111,-2.2 0.21589,-2.9822 0.45508,-1.7383 0.23919,1.2439 0.23011,3.0439 -0.0202,4 -0.25029,0.9561 -0.446,-0.062 -0.4349,-2.2617 z m 135.62026,-2.25 c -1.24387,-1.586 -1.2085,-1.6214 0.37756,-0.3775 1.66575,1.3064 2.19548,2.1275 1.37244,2.1275 -0.20765,0 -0.99515,-0.7875 -1.75,-1.75 z m 18,-12 c -1.24387,-1.586 -1.2085,-1.6214 0.37756,-0.3775 1.66575,1.3064 2.19548,2.1275 1.37244,2.1275 -0.20765,0 -0.99515,-0.7875 -1.75,-1.75 z m -8.94813,-10 -2.42431,-2.75 2.75,2.4244 c 1.5125,1.3333 2.75,2.5708 2.75,2.75 0,0.7842 -0.8098,0.1459 -3.07569,-2.4244 z m -194.11181,0.067 c 0.72187,-0.2888 1.58438,-0.2533 1.91667,0.079 0.33229,0.3323 -0.25834,0.5687 -1.3125,0.5253 -1.16495,-0.048 -1.4019,-0.285 -0.60417,-0.6042 z m 183.1875,-10.8169 c -2.42903,-2.475 -4.19142,-4.5 -3.91642,-4.5 0.275,0 2.48739,2.025 4.91642,4.5 2.42903,2.475 4.19142,4.5 3.91642,4.5 -0.275,0 -2.48739,-2.025 -4.91642,-4.5 z m -370,-3.8775 c 0,-0.2077 0.7875,-0.9952 1.75,-1.75 1.58606,-1.2439 1.62143,-1.2085 0.37756,0.3775 -1.30637,1.6658 -2.12756,2.1955 -2.12756,1.3725 z m 148.8125,-48.3056 c 0.72187,-0.2888 1.58438,-0.2533 1.91667,0.079 0.33229,0.3323 -0.25834,0.5687 -1.3125,0.5252 -1.16495,-0.048 -1.4019,-0.2849 -0.60417,-0.6041 z m 59,-1 c 0.72187,-0.2888 1.58438,-0.2533 1.91667,0.079 0.33229,0.3323 -0.25834,0.5687 -1.3125,0.5252 -1.16495,-0.048 -1.4019,-0.2849 -0.60417,-0.6041 z m -34,-1 c 0.72187,-0.2888 1.58438,-0.2533 1.91667,0.079 0.33229,0.3323 -0.25834,0.5687 -1.3125,0.5252 -1.16495,-0.048 -1.4019,-0.2849 -0.60417,-0.6041 z m -15,-21 c 0.72187,-0.2888 1.58438,-0.2533 1.91667,0.079 0.33229,0.3323 -0.25834,0.5687 -1.3125,0.5252 -1.16495,-0.048 -1.4019,-0.2849 -0.60417,-0.6041 z m 12.45653,-1.0099 c 0.97297,-0.2535 2.32297,-0.2368 3,0.037 0.67703,0.274 -0.11903,0.4814 -1.76903,0.461 -1.65,-0.02 -2.20394,-0.2445 -1.23097,-0.498 z m 23.48097,0.031 c 0.6875,-0.2774 1.8125,-0.2774 2.5,0 0.6875,0.2775 0.125,0.5044 -1.25,0.5044 -1.375,0 -1.9375,-0.2269 -1.25,-0.5044 z"
       id="path2370" />
    <g
       id="g19135"
       inkscape:export-filename="D:\4NOW\g19135.png"
       inkscape:export-xdpi="51.3288"
       inkscape:export-ydpi="51.3288">
      <path
         style="fill:#d3ecfa"
         d="M -51.030948,456.96094 V -55.039071 H 460.96905 972.96915 V 456.96094 968.96091 H 460.96905 -51.030948 Z m 536.144098,269.983 c 47.187,-4.6341 92.5244,-20.6366 130.3559,-46.011 22.884,-15.3488 48.1084,-38.9803 64.6119,-60.5318 29.6911,-38.7726 48.2751,-83.92 53.3901,-129.7038 1.7349,-15.5285 1.9512,-45.7079 0.4267,-59.5258 -4.9199,-44.593 -19.2502,-84.8083 -42.9869,-120.63481 -19.7142,-29.7551 -43.0084,-53.7943 -71.9418,-74.2422 -5.775,-4.0814 -11.2875,-8.0717 -12.25,-8.8673 -0.9625,-0.7957 -1.75,-1.2589 -1.75,-1.0294 0,0.2295 -2.5875,-1.1587 -5.75,-3.0848 -3.1625,-1.9261 -11.375,-6.2638 -18.25,-9.6393 -6.875,-3.3755 -12.725,-6.3793 -13,-6.675 -0.275,-0.2958 -0.95,-0.5407 -1.5,-0.5443 -1.8832,-0.012 -14.5,-4.9746 -14.5,-5.7031 0,-0.4002 -0.675,-0.4686 -1.5,-0.152 -0.825,0.3166 -1.5,0.1732 -1.5,-0.3186 0,-0.4918 -0.8412,-0.9575 -1.8693,-1.035 -1.0282,-0.077 -5.6407,-1.2697 -10.25,-2.6496 -13.6624,-4.0899 -27.5172,-6.8 -46.8807,-9.17 -8.8585,-1.0843 -38.4085,-2.1331 -39.5,-1.402 -0.55,0.3684 -5.1816,0.9725 -10.2924,1.3425 -35.646,2.5802 -81.3234,17.3109 -112.924,36.4173 -5.6191,3.3974 -10.4514,6.177 -10.7386,6.177 -0.2871,0 -1.3147,0.6599 -2.2835,1.4663 -0.9688,0.8065 -7.3865,5.6268 -14.2615,10.7118 -8.4437,6.2453 -18.341,15.0849 -30.5,27.2403 -9.9,9.8971 -17.8888,18.1258 -17.753,18.286 0.3619,0.4265 -14.7897,20.665 -16.1187,21.5303 -0.6205,0.4041 -0.7601,0.7416 -0.3102,0.75 0.45,0.01 -0.058,1.2528 -1.1297,2.76531 -7.7911,10.9998 -19.288,33.7192 -25.5916,50.5723 -13.1484,35.1531 -19.2215,75.4092 -16.6732,110.5188 2.6726,36.8226 10.0429,66.9006 23.3789,95.4089 2.5086,5.3625 4.2542,9.7569 3.8793,9.7654 -0.375,0.01 -0.2278,0.3459 0.3269,0.75 0.5548,0.404 4.5869,6.7168 8.9601,14.0283 35.6534,59.6078 91.541,102.3188 161.719,123.5907 29.086,8.8164 65.4708,12.4943 94.9563,9.5986 z m -38.3316,-21.6661 c 0.7219,-0.2888 1.5844,-0.2533 1.9167,0.079 0.3323,0.3323 -0.2583,0.5687 -1.3125,0.5252 -1.1649,-0.048 -1.4019,-0.2849 -0.6042,-0.6041 z m 29.4375,-0.01 c 0.9625,-0.2515 2.5375,-0.2515 3.5,0 0.9625,0.2516 0.175,0.4574 -1.75,0.4574 -1.925,0 -2.7125,-0.2058 -1.75,-0.4574 z m -126.25,-27.3109 c -0.9013,-0.5824 -1.0246,-0.9754 -0.309,-0.9846 0.6551,-0.01 1.4691,0.4346 1.809,0.9846 0.7673,1.2416 0.4212,1.2416 -1.5,0 z m 142.2638,-19.7175 c 1.52,-0.2299 3.77,-0.2237 5,0.014 1.2299,0.2373 -0.014,0.4254 -2.7638,0.4179 -2.75,-0.01 -3.7563,-0.2017 -2.2362,-0.4316 z m -129.5551,-0.9998 7.2088,-0.3686 0.3588,-7.4603 0.3589,-7.4603 -0.068,7.7533 -0.068,7.7532 -7.5,0.076 -7.5,0.076 7.2087,-0.3686 z m 34.0189,-3e-4 7.2277,-0.3691 0.3062,-17.7066 0.3062,-17.7067 -0.034,18 -0.034,18 -7.5,0.076 -7.5,0.076 7.2276,-0.369 z m 159.5415,0.025 c 0.9729,-0.2536 2.3229,-0.2369 3,0.037 0.677,0.2739 -0.1191,0.4813 -1.7691,0.461 -1.65,-0.02 -2.2039,-0.2445 -1.2309,-0.4981 z m 30.2309,0.1865 c 2.2858,-0.7968 8.3223,-1.015 7.8709,-0.2846 -0.2689,0.4351 -2.3748,0.7555 -4.6799,0.7121 -2.305,-0.043 -3.741,-0.2358 -3.191,-0.4275 z m -151.6275,-3.2436 c -1.2439,-1.586 -1.2085,-1.6214 0.3775,-0.3775 1.6658,1.3064 2.1955,2.1275 1.3725,2.1275 -0.2077,0 -0.9952,-0.7875 -1.75,-1.75 z m -8.4354,-9.5 -2.9371,-3.25 3.25,2.9371 c 3.0295,2.7378 3.7097,3.5629 2.9371,3.5629 -0.1721,0 -1.6346,-1.4625 -3.25,-3.25 z m 66.832,-1.4429 c 0.9729,-0.2536 2.3229,-0.2369 3,0.037 0.677,0.2739 -0.1191,0.4813 -1.7691,0.4609 -1.65,-0.02 -2.2039,-0.2445 -1.2309,-0.498 z m -197.3966,-2.0571 c -1.2439,-1.586 -1.2085,-1.6214 0.3775,-0.3775 0.9625,0.7548 1.75,1.5423 1.75,1.75 0,0.823 -0.8212,0.2933 -2.1275,-1.3725 z m 27.1275,-0.1275 c 0,-0.4827 0.7875,-1.4952 1.75,-2.25 1.5484,-1.2143 1.607,-1.189 0.5087,0.2196 -0.6827,0.8756 -0.9452,1.8881 -0.5833,2.25 0.3619,0.3618 0.133,0.6579 -0.5087,0.6579 -0.6417,0 -1.1667,-0.3949 -1.1667,-0.8775 z m 310,-2.6225 c 1.8658,-1.925 3.6174,-3.5 3.8924,-3.5 0.275,0 -1.0266,1.575 -2.8924,3.5 -1.8657,1.925 -3.6173,3.5 -3.8923,3.5 -0.275,0 1.0266,-1.575 2.8923,-3.5 z m -151.595,-0.75 -1.905,-2.25 2.25,1.905 c 2.1145,1.7903 2.7053,2.595 1.905,2.595 -0.1897,0 -1.2022,-1.0125 -2.25,-2.25 z m -196.952,-7 -3.953,-4.25 4.25,3.953 c 2.3375,2.1741 4.25,4.0866 4.25,4.25 0,0.7566 -0.8708,-5e-4 -4.547,-3.953 z m 126.0094,-3 -4.9624,-5.25 5.25,4.9625 c 4.8784,4.6111 5.7086,5.5375 4.9624,5.5375 -0.1581,0 -2.5206,-2.3625 -5.25,-5.25 z m 115.81,0.25 c 0,-2.475 0.195,-3.4875 0.4334,-2.25 0.2383,1.2375 0.2383,3.2625 0,4.5 -0.2384,1.2375 -0.4334,0.225 -0.4334,-2.25 z m 31.7276,2.941 c 0,-0.5824 0.45,-0.7809 1,-0.441 0.55,0.34 1,0.8165 1,1.0591 0,0.2425 -0.45,0.4409 -1,0.4409 -0.55,0 -1,-0.4765 -1,-1.059 z m 32,0.059 c 0,-0.55 0.45,-1 1,-1 0.55,0 1,0.45 1,1 0,0.55 -0.45,1 -1,1 -0.55,0 -1,-0.45 -1,-1 z m -234.1785,-6.0747 c -0.2137,-2.2411 -0.036,-4.2927 0.395,-4.559 0.4309,-0.2664 0.7835,1.5672 0.7835,4.0747 0,5.6602 -0.6591,5.9311 -1.1785,0.4843 z m 72.1028,1.3247 -2.4243,-2.75 2.75,2.4243 c 2.5703,2.2659 3.2086,3.0757 2.4243,3.0757 -0.1791,0 -1.4166,-1.2375 -2.75,-2.75 z m -93.9243,0.3725 c 0,-0.2077 0.7875,-0.9952 1.75,-1.75 1.5861,-1.2439 1.6215,-1.2085 0.3776,0.3775 -1.3064,1.6658 -2.1276,2.1955 -2.1276,1.3725 z m -57.0757,-3.3725 -2.4243,-2.75 2.75,2.4243 c 2.5703,2.2659 3.2086,3.0757 2.4243,3.0757 -0.1791,0 -1.4166,-1.2375 -2.75,-2.75 z m 332.64,0.4569 c 0.3756,-0.9862 0.9347,-1.5412 1.2426,-1.2333 0.3079,0.3079 6e-4,1.1148 -0.6828,1.7931 -0.9876,0.9803 -1.1025,0.8654 -0.5598,-0.5598 z m -146.4853,-1.2902 c 0.048,-1.165 0.2849,-1.4019 0.6041,-0.6042 0.2889,0.7219 0.2534,1.5844 -0.079,1.9167 -0.3322,0.3323 -0.5686,-0.2583 -0.5252,-1.3125 z m 187.421,-1.4167 c 0.9955,-1.1 2.035,-2 2.31,-2 0.275,0 -0.3145,0.9 -1.31,2 -0.9955,1.1 -2.0349,2 -2.3099,2 -0.275,0 0.3144,-0.9 1.3099,-2 z m -232.5757,-5.75 -2.4243,-2.75 2.75,2.4243 c 2.5703,2.2659 3.2086,3.0757 2.4243,3.0757 -0.1791,0 -1.4166,-1.2375 -2.75,-2.75 z m 239.0757,-1.6275 c 0,-0.2077 0.7875,-0.9952 1.75,-1.75 1.5861,-1.2439 1.6215,-1.2085 0.3776,0.3775 -1.3064,1.6658 -2.1276,2.1955 -2.1276,1.3725 z m -251.595,-11.8725 -1.905,-2.25 2.25,1.905 c 2.1145,1.7902 2.7053,2.595 1.905,2.595 -0.1897,0 -1.2022,-1.0125 -2.25,-2.25 z m -51.405,-1.1275 c 0,-0.2077 0.7875,-0.9952 1.75,-1.75 1.5861,-1.2439 1.6215,-1.2085 0.3776,0.3775 -1.3064,1.6658 -2.1276,2.1955 -2.1276,1.3725 z m 16.1579,-1.6225 c 0,-1.375 0.227,-1.9375 0.5044,-1.25 0.2774,0.6875 0.2774,1.8125 0,2.5 -0.2774,0.6875 -0.5044,0.125 -0.5044,-1.25 z m -4.1579,-4 -4.5,-0.6996 4.191,-0.1502 c 2.3051,-0.083 4.4691,0.2998 4.809,0.8498 0.34,0.55 0.479,0.9324 0.3091,0.8498 -0.17,-0.083 -2.3341,-0.465 -4.8091,-0.8498 z m 25.75,-0.7057 c 1.2375,-0.2384 3.2625,-0.2384 4.5,0 1.2375,0.2383 0.225,0.4334 -2.25,0.4334 -2.475,0 -3.4875,-0.1951 -2.25,-0.4334 z m 44.9777,-0.016 c 1.7753,-0.2209 4.9253,-0.2245 7,-0.01 2.0748,0.2165 0.6223,0.3972 -3.2277,0.4016 -3.85,0 -5.5475,-0.1726 -3.7723,-0.3935 z m 56.5361,0 c 1.52,-0.2299 3.77,-0.2237 5,0.014 1.2299,0.2374 -0.014,0.4254 -2.7638,0.4179 -2.75,-0.01 -3.7563,-0.2017 -2.2362,-0.4316 z m 39.4639,0 c 1.7753,-0.2209 4.9253,-0.2245 7,-0.01 2.0748,0.2165 0.6223,0.3972 -3.2277,0.4016 -3.85,0 -5.5475,-0.1726 -3.7723,-0.3935 z m 78.0223,-0.01 c 2.3375,-0.2105 6.1625,-0.2105 8.5,0 2.3375,0.2105 0.425,0.3828 -4.25,0.3828 -4.675,0 -6.5875,-0.1723 -4.25,-0.3828 z m -222.25,-19.3201 -11,-0.5523 12.25,-0.1977 c 6.7375,-0.1087 12.25,-0.021 12.25,0.1953 0,0.9415 -3.1874,1.0725 -13.5,0.5547 z m -45.6875,-0.6308 c 0.7219,-0.2889 1.5844,-0.2534 1.9167,0.079 0.3323,0.3323 -0.2583,0.5686 -1.3125,0.5252 -1.1649,-0.048 -1.4019,-0.2849 -0.6042,-0.6041 z m 12.7518,-0.61 c 0.3756,-0.9862 0.9347,-1.5412 1.2426,-1.2334 0.3079,0.3079 6e-4,1.1148 -0.6828,1.7932 -0.9876,0.9802 -1.1025,0.8654 -0.5598,-0.5598 z m 68.0869,0.5431 c -0.2568,-0.4125 3.2041,-0.6288 7.691,-0.4806 14.0179,0.4628 15.6043,0.8877 3.9669,1.0625 -6.1551,0.092 -11.4011,-0.1694 -11.6579,-0.5819 z m 52.5988,0.011 c 3.1625,-0.1984 8.3375,-0.1984 11.5,0 3.1625,0.1985 0.575,0.3608 -5.75,0.3608 -6.325,0 -8.9125,-0.1623 -5.75,-0.3608 z m 42.5625,0.056 c 0.7219,-0.2889 1.5844,-0.2533 1.9167,0.079 0.3323,0.3323 -0.2583,0.5686 -1.3125,0.5252 -1.1649,-0.048 -1.4019,-0.2849 -0.6042,-0.6041 z m 7.4375,-0.052 c 2.6125,-0.206 6.8875,-0.206 9.5,0 2.6125,0.206 0.475,0.3745 -4.75,0.3745 -5.225,0 -7.3625,-0.1685 -4.75,-0.3745 z m 44.5392,-0.01 c 3.4591,-0.1958 8.8591,-0.1942 12,0 3.141,0.1978 0.3108,0.358 -6.2892,0.3561 -6.6,0 -9.1698,-0.1639 -5.7108,-0.3597 z m -237.9767,-0.9417 c 0.7219,-0.2889 1.5844,-0.2533 1.9167,0.079 0.3323,0.3323 -0.2583,0.5686 -1.3125,0.5252 -1.1649,-0.048 -1.4019,-0.2849 -0.6042,-0.6041 z m 90.3454,-3.3173 c 0,-1.375 0.227,-1.9375 0.5044,-1.25 0.2774,0.6875 0.2774,1.8125 0,2.5 -0.2774,0.6875 -0.5044,0.125 -0.5044,-1.25 z m -104.1579,0.6225 c 0,-0.2077 0.7875,-0.9952 1.75,-1.75 1.5861,-1.2439 1.6215,-1.2085 0.3776,0.3775 -1.3064,1.6658 -2.1276,2.1955 -2.1276,1.3725 z m 85.232,-3.6225 c 0,-1.925 0.2058,-2.7125 0.4574,-1.75 0.2515,0.9625 0.2515,2.5375 0,3.5 -0.2516,0.9625 -0.4574,0.175 -0.4574,-1.75 z m 65.9259,-1 c 0,-1.375 0.227,-1.9375 0.5044,-1.25 0.2774,0.6875 0.2774,1.8125 0,2.5 -0.2774,0.6875 -0.5044,0.125 -0.5044,-1.25 z m 168.6546,-19.6831 c 0.7219,-0.2889 1.5844,-0.2533 1.9167,0.079 0.3323,0.3323 -0.2583,0.5687 -1.3125,0.5252 -1.1649,-0.048 -1.4019,-0.2849 -0.6042,-0.6041 z m 22.1875,-9.6298 c 0,-0.1721 1.4625,-1.6346 3.25,-3.25 l 3.25,-2.9371 -2.9371,3.25 c -2.7377,3.0295 -3.5629,3.7097 -3.5629,2.9371 z m -234.3099,-7.8971 c 1.9158,-2.1169 3.0856,-2.4295 1.374,-0.3672 -0.9553,1.1511 -0.74,1.5103 1.1276,1.881 1.5257,0.3029 1.2184,0.4273 -0.9066,0.3672 -3.0242,-0.086 -3.1188,-0.1972 -1.595,-1.881 z m 224.3099,1.8325 c 0,-0.2077 0.7875,-0.9952 1.75,-1.75 1.5861,-1.2439 1.6215,-1.2085 0.3776,0.3775 -1.3064,1.6658 -2.1276,2.1955 -2.1276,1.3725 z m -275.5321,-1.9632 c -6.291,-2.0589 -12.9095,-6.3298 -17.4612,-11.2678 -4.7049,-5.1043 -10.5312,-16.7907 -11.5117,-23.0906 -0.6424,-4.1275 -0.6053,-4.1957 2.1757,-4 l 2.8293,0.1991 0.6374,-9 c 0.4815,-6.798 1.2772,-10.2844 3.2521,-14.2494 7.0081,-14.0698 16.9668,-19.1904 38.1838,-19.6336 3.5347,-0.074 6.4267,0.2338 6.4267,0.6834 0,0.4497 0.3829,0.5811 0.8508,0.2919 1.0713,-0.6621 6.9127,3.6015 9.8509,7.1903 3.6201,4.4216 5.6223,11.7085 5.0254,18.2904 -0.5997,6.614 -4.0541,13.6121 -7.1551,14.4955 -4.653,1.3255 -6.0309,1.5312 -5.0031,0.747 3.4965,-2.6677 5.7237,-16.8697 3.5286,-22.5004 -2.6464,-6.7883 -11.9955,-12.8151 -19.8795,-12.8151 -15.2099,0 -25.0467,10.8689 -26.0198,28.75 -0.3775,6.9377 -0.2053,8.25 1.0826,8.25 1.0795,0 1.7345,-1.4757 2.2192,-5 0.3783,-2.75 1.135,-5 1.6818,-5 0.5972,0 0.7374,1.519 0.3512,3.8048 -0.9038,5.3497 4.0131,12.612 10.9365,16.1533 4.5407,2.3226 6.3466,2.5851 20.9306,3.0419 l 15.9612,0.5 -5.1413,4.6174 c -2.8277,2.5396 -6.8465,5.4361 -8.9306,6.4368 -4.7569,2.284 -13.5364,2.9949 -18.9577,1.5351 -9.6451,-2.5971 -18.7378,-11.805 -21.6849,-21.9594 -1.2121,-4.1763 -1.6668,-4.6616 -4.6413,-4.9541 l -3.2977,-0.3243 0.6262,4.5681 c 1.4031,10.2368 10.5583,22.4126 20.5396,27.3163 5.0171,2.4647 6.7095,2.7623 15.6264,2.7474 8.9452,-0.015 10.5713,-0.3095 15.4159,-2.7921 6.2662,-3.211 11.2365,-7.2785 15.8341,-12.9579 4.0406,-4.9914 4.1493,-3.834 0.2745,2.922 -3.3687,5.8736 -9.0472,10.8467 -17.0245,14.9097 -4.5892,2.3374 -6.9903,2.852 -14.5,3.1076 -5.5725,0.1896 -10.5355,-0.1963 -13.0321,-1.0133 z m 231.4827,-0.021 c -8.569,-2.3111 -16.5495,-9.0113 -20.9073,-17.5531 -2.0968,-4.1102 -2.7324,-9.0849 -1.1606,-9.0849 0.4854,0 2.0736,2.4343 3.5293,5.4096 6.6121,13.5146 20.1631,20.8886 34.088,18.5495 2.75,-0.462 5.4765,-0.8667 6.0589,-0.8995 0.5823,-0.033 3.7323,-1.6311 7,-3.5519 l 5.9411,-3.4922 -4.5,4.0024 c -8.0984,7.203 -18.9908,9.6026 -30.0494,6.6201 z m -27.0781,-1.3881 c -1.2439,-1.586 -1.2085,-1.6214 0.3775,-0.3775 0.9625,0.7548 1.75,1.5423 1.75,1.75 0,0.823 -0.8212,0.2933 -2.1275,-1.3725 z m 27.3752,-10.3564 c -13.7112,-6.7869 -20.1308,-25.0093 -13.6873,-38.8521 3.3032,-7.0963 4.3618,-8.351 5.9404,-7.0408 0.9642,0.8002 0.7746,1.9555 -0.8637,5.2623 -2.549,5.1449 -2.7576,13.8806 -0.4356,18.237 2.3405,4.3912 8.4927,10.3852 11.4109,11.1176 3.9373,0.9882 4.8668,-0.7629 3.1225,-5.8823 l -1.507,-4.4228 3.6361,1.2092 c 1.9998,0.6651 5.0925,1.4823 6.8725,1.8161 3.023,0.5668 3.2288,0.4272 3.1196,-2.1155 -0.1645,-3.8293 -0.8812,-6.3235 -1.6781,-5.8396 -0.3729,0.2264 -0.7418,-1.2813 -0.8198,-3.3505 -0.078,-2.0692 -1.7261,-7.6479 -3.6624,-12.3972 l -3.5204,-8.635 8.1623,0.01 c 5.2717,0 9.1731,0.5334 11.0164,1.4947 1.5698,0.8187 3.2175,1.264 3.6616,0.9895 1.6793,-1.0378 8.0298,9.3727 9.6008,15.7386 1.3809,5.5959 1.4107,7.3011 0.2334,13.3434 -1.1396,5.8487 -1.6892,6.976 -3.5288,7.2379 -1.1984,0.1706 -3.781,2.2655 -5.7392,4.6552 -7.3761,9.0015 -21.4266,12.3323 -31.3342,7.4281 z m -286.4977,-8.5558 c 0.6875,-0.2774 1.8125,-0.2774 2.5,0 0.6875,0.2774 0.125,0.5044 -1.25,0.5044 -1.375,0 -1.9375,-0.227 -1.25,-0.5044 z m -11.9375,-1.0209 c 0.7219,-0.2888 1.5844,-0.2533 1.9167,0.079 0.3323,0.3323 -0.2583,0.5687 -1.3125,0.5252 -1.1649,-0.048 -1.4019,-0.2849 -0.6042,-0.6041 z m -9,-1 c 0.7219,-0.2888 1.5844,-0.2533 1.9167,0.079 0.3323,0.3323 -0.2583,0.5687 -1.3125,0.5252 -1.1649,-0.048 -1.4019,-0.2849 -0.6042,-0.6041 z m -9.0625,-0.9791 c 0.6875,-0.2774 1.8125,-0.2774 2.5,0 0.6875,0.2774 0.125,0.5044 -1.25,0.5044 -1.375,0 -1.9375,-0.227 -1.25,-0.5044 z m -7.9375,-1.0209 c 0.7219,-0.2888 1.5844,-0.2533 1.9167,0.079 0.3323,0.3323 -0.2583,0.5687 -1.3125,0.5252 -1.1649,-0.048 -1.4019,-0.2849 -0.6042,-0.6041 z m 192.8713,-1.0653 c 10.5511,-0.1619 28.1011,-0.1621 39,-5e-4 10.8989,0.1615 2.2662,0.294 -19.1838,0.2942 -21.45,3e-4 -30.3673,-0.1319 -19.8162,-0.2937 z m 86.9829,-2.9182 c -0.3667,-0.3667 -0.6598,-1.1542 -0.6514,-1.75 0.01,-0.7202 0.2617,-0.6981 0.75,0.066 0.4041,0.632 1.8597,1.3582 3.2347,1.6138 l 2.5,0.4646 -2.5833,0.1362 c -1.4208,0.075 -2.8833,-0.1638 -3.25,-0.5305 z m 147.4123,-0.9167 c 0.048,-1.1649 0.2849,-1.4019 0.6041,-0.6042 0.2889,0.7219 0.2534,1.5844 -0.079,1.9167 -0.3322,0.3323 -0.5686,-0.2583 -0.5252,-1.3125 z m -163.079,-1.7296 c 0,-0.1721 1.4625,-1.6346 3.25,-3.25 l 3.25,-2.9371 -2.9371,3.25 c -2.7377,3.0295 -3.5629,3.7097 -3.5629,2.9371 z m -223.1875,-2.3702 c 0.7219,-0.2888 1.5844,-0.2533 1.9167,0.079 0.3323,0.3323 -0.2583,0.5687 -1.3125,0.5252 -1.1649,-0.048 -1.4019,-0.2849 -0.6042,-0.6041 z m 387.3454,-3.3169 c 0,-1.375 0.227,-1.9375 0.5044,-1.25 0.2774,0.6875 0.2774,1.8125 0,2.5 -0.2774,0.6875 -0.5044,0.125 -0.5044,-1.25 z m -279.4953,-2.682 5.1626,-0.4125 2.7044,-6.7028 c 8.7584,-21.7077 -0.241,-43.6764 -22.6554,-55.3046 -2.4058,-1.248 -6.1742,-2.5793 -8.3742,-2.9584 -2.3687,-0.4082 2.525,-0.74 12,-0.8137 15.6463,-0.1216 16.1327,-0.061 22,2.7277 7.3649,3.5009 13.5382,9.373 17.201,16.362 2.456,4.6863 2.7711,6.3594 2.7842,14.7843 0.013,8.1935 -0.3476,10.273 -2.6203,15.1201 -3.0325,6.4672 -8.8474,13.3025 -13.2568,15.5826 -1.9256,0.9958 -6.174,1.6566 -11.5751,1.8006 -4.6931,0.125 -6.2098,0.042 -3.3704,-0.1853 z m 130.4953,-2.318 c 0,-1.375 0.227,-1.9375 0.5044,-1.25 0.2774,0.6875 0.2774,1.8125 0,2.5 -0.2774,0.6875 -0.5044,0.125 -0.5044,-1.25 z m 14.8421,-1.8775 c 0,-1.5827 0.675,-3.4378 1.5,-4.1225 1.2246,-1.0163 1.5,-0.9577 1.5,0.3186 0,0.8599 -0.4077,1.8154 -0.9061,2.1234 -0.4984,0.308 -0.6709,1.4596 -0.3834,2.559 0.2922,1.1173 0.03,1.999 -0.5938,1.999 -0.6142,0 -1.1167,-1.2949 -1.1167,-2.8775 z m 135.1579,-1.1225 c 0,-1.375 0.227,-1.9375 0.5044,-1.25 0.2774,0.6875 0.2774,1.8125 0,2.5 -0.2774,0.6875 -0.5044,0.125 -0.5044,-1.25 z m -391.2854,-0.75 c -1.2439,-1.586 -1.2085,-1.6214 0.3775,-0.3775 0.9625,0.7548 1.75,1.5423 1.75,1.75 0,0.823 -0.8212,0.2933 -2.1275,-1.3725 z m 186.1275,-3.8753 c 0,-0.3439 5.8158,-6.5314 12.9239,-13.75 17.2773,-17.5458 18.6921,-19.1986 22.1231,-25.8461 3.986,-7.7229 4.0074,-14.1463 0.073,-22.0462 -1.5798,-3.1722 -2.5343,-5.9765 -2.1212,-6.2318 1.0208,-0.6309 8.1952,4.6596 10.7868,7.9543 4.8968,6.2253 5.3355,15.4562 1.1274,23.7268 -1.2085,2.3751 -6.6415,8.9773 -12.0733,14.6716 -5.4318,5.6944 -11.3304,13.0015 -13.108,16.2382 l -3.2319,5.8848 -8.25,0.012 c -4.5375,0.01 -8.25,-0.2695 -8.25,-0.6134 z m 72.7414,-5.4667 c 0.6827,-0.8756 0.9077,-1.9857 0.5,-2.467 -0.4078,-0.4813 0.046,-0.2723 1.0086,0.4645 0.9625,0.7367 1.75,1.5843 1.75,1.8837 0,0.2993 -0.2961,0.2481 -0.658,-0.1138 -0.3619,-0.3619 -1.3744,-0.099 -2.25,0.5833 -1.3735,1.071 -1.4216,1.0228 -0.3506,-0.3507 z m 133.4165,-1.908 c 0,-1.375 0.227,-1.9375 0.5044,-1.25 0.2774,0.6875 0.2774,1.8125 0,2.5 -0.2774,0.6875 -0.5044,0.125 -0.5044,-1.25 z m -500.9259,-5 c 0,-1.925 0.2058,-2.7125 0.4574,-1.75 0.2515,0.9625 0.2515,2.5375 0,3.5 -0.2516,0.9625 -0.4574,0.175 -0.4574,-1.75 z m 409.5805,-5.6831 c 0.7219,-0.2888 1.5844,-0.2533 1.9167,0.079 0.3323,0.3323 -0.2583,0.5687 -1.3125,0.5252 -1.1649,-0.048 -1.4019,-0.2849 -0.6042,-0.6041 z m -31.2698,-2.2478 c -0.3164,-0.512 -0.1929,-1.1672 0.2744,-1.456 0.4673,-0.2888 0.8496,0.1301 0.8496,0.9309 0,1.6862 -0.3153,1.8335 -1.124,0.5251 z m 61.0697,-2.954 c -2.8507,-2.9194 -3.4604,-4.0777 -2.453,-4.6604 0.7374,-0.4264 0.994,-0.394 0.5703,0.072 -0.4237,0.4661 0.9051,2.5632 2.9529,4.6604 2.0479,2.0971 3.4983,3.813 3.2233,3.813 -0.275,0 -2.2071,-1.7483 -4.2935,-3.885 z m -327.6124,-0.1151 -3.5,-0.7367 3.75,-0.1316 c 2.0625,-0.072 3.75,0.3183 3.75,0.8683 0,0.55 -0.1125,0.9408 -0.25,0.8684 -0.1375,-0.072 -1.825,-0.4632 -3.75,-0.8684 z m 251,-1.3775 c 0,-0.2077 0.7875,-0.9952 1.75,-1.75 1.5861,-1.2439 1.6215,-1.2085 0.3776,0.3775 -1.3064,1.6658 -2.1276,2.1955 -2.1276,1.3725 z m -216,-1 c 0,-0.2077 0.7875,-0.9952 1.75,-1.75 1.5861,-1.2439 1.6215,-1.2085 0.3776,0.3775 -1.3064,1.6658 -2.1276,2.1955 -2.1276,1.3725 z m -68.1875,-2.3056 c 0.7219,-0.2888 1.5844,-0.2533 1.9167,0.079 0.3323,0.3323 -0.2583,0.5687 -1.3125,0.5252 -1.1649,-0.048 -1.4019,-0.2849 -0.6042,-0.6041 z m -78.5603,-3.8169 c 0.011,-2.2 0.2159,-2.9822 0.4551,-1.7383 0.2392,1.2439 0.2301,3.0439 -0.02,4 -0.2503,0.9561 -0.446,-0.062 -0.4349,-2.2617 z m 68.4978,2.8378 c 0.6875,-0.2774 1.8125,-0.2774 2.5,0 0.6875,0.2774 0.125,0.5044 -1.25,0.5044 -1.375,0 -1.9375,-0.227 -1.25,-0.5044 z m 346.25,-0.3378 c 0,-0.55 0.4235,-1 0.941,-1 0.5176,0 1.2191,0.45 1.559,1 0.34,0.55 -0.083,1 -0.9409,1 -0.8575,0 -1.5591,-0.45 -1.5591,-1 z m -346.1875,-1.6831 c 0.7219,-0.2888 1.5844,-0.2533 1.9167,0.079 0.3323,0.3323 -0.2583,0.5687 -1.3125,0.5252 -1.1649,-0.048 -1.4019,-0.2849 -0.6042,-0.6041 z m 335.4375,-1.0062 c 0.9625,-0.2515 2.5375,-0.2515 3.5,0 0.9625,0.2515 0.175,0.4573 -1.75,0.4573 -1.925,0 -2.7125,-0.2058 -1.75,-0.4573 z m 96.9079,-1.3107 c 0,-1.375 0.227,-1.9375 0.5044,-1.25 0.2774,0.6875 0.2774,1.8125 0,2.5 -0.2774,0.6875 -0.5044,0.125 -0.5044,-1.25 z m -295.2117,-2.75 -3.4462,-3.75 3.75,3.4462 c 3.4905,3.2076 4.2098,4.0538 3.4462,4.0538 -0.1671,0 -1.8546,-1.6875 -3.75,-3.75 z m -117.1337,2.0669 c 0.7219,-0.2888 1.5844,-0.2533 1.9167,0.079 0.3323,0.3323 -0.2583,0.5687 -1.3125,0.5252 -1.1649,-0.048 -1.4019,-0.2849 -0.6042,-0.6041 z m 347.06,-1.0669 c -1.2439,-1.586 -1.2085,-1.6214 0.3775,-0.3775 0.9625,0.7548 1.75,1.5423 1.75,1.75 0,0.823 -0.8212,0.2933 -2.1275,-1.3725 z m -339.06,0.067 c 0.7219,-0.2888 1.5844,-0.2533 1.9167,0.079 0.3323,0.3323 -0.2583,0.5687 -1.3125,0.5253 -1.1649,-0.048 -1.4019,-0.285 -0.6042,-0.6042 z m 69.9375,0.021 c 0.6875,-0.2774 1.8125,-0.2774 2.5,0 0.6875,0.2774 0.125,0.5044 -1.25,0.5044 -1.375,0 -1.9375,-0.227 -1.25,-0.5044 z m -59.9375,-1.0208 c 0.7219,-0.2889 1.5844,-0.2533 1.9167,0.079 0.3323,0.3323 -0.2583,0.5687 -1.3125,0.5252 -1.1649,-0.048 -1.4019,-0.2849 -0.6042,-0.6041 z m 10,-1 c 0.7219,-0.2889 1.5844,-0.2533 1.9167,0.079 0.3323,0.3323 -0.2583,0.5687 -1.3125,0.5252 -1.1649,-0.048 -1.4019,-0.2849 -0.6042,-0.6041 z m 5.1875,-0.6944 c 0,-0.2077 0.7875,-0.9952 1.75,-1.75 1.5861,-1.2439 1.6215,-1.2085 0.3776,0.3775 -1.3064,1.6658 -2.1276,2.1955 -2.1276,1.3725 z m 185,-2 c 0,-0.2077 0.7875,-0.9952 1.75,-1.75 1.5861,-1.2439 1.6215,-1.2085 0.3776,0.3775 -1.3064,1.6658 -2.1276,2.1955 -2.1276,1.3725 z m -305.8421,-3.6225 c 0,-1.375 0.227,-1.9375 0.5044,-1.25 0.2774,0.6875 0.2774,1.8125 0,2.5 -0.2774,0.6875 -0.5044,0.125 -0.5044,-1.25 z m 311.4751,-3.6194 c 0.5273,-2.1005 0.3329,-2.124 -21.8005,-2.6409 -24.5164,-0.5726 -30.4745,-1.6544 -35.2139,-6.3938 -5.2452,-5.2452 -6.5032,-0.3149 16.0887,-63.0489 4.1997,-11.6616 8.0393,-20.9536 8.5324,-20.6488 0.4932,0.3048 0.6551,1.1836 0.3599,1.953 -1.039,2.7075 1.1723,1.3639 2.3215,-1.4106 3.4601,-8.3534 16.5716,-7.9304 20.6731,0.667 0.8809,1.8466 2.2272,9.0466 2.9917,16 2.1404,19.4682 2.9091,23.7228 4.8109,26.6252 3.1467,4.8025 6.4233,5.4147 29.838,5.5751 21.6426,0.1483 25.7652,-0.4095 25.7652,-3.4861 0,-2.3944 2.7213,-2.4974 4.8936,-0.1851 2.6554,2.8265 2.7018,7.018 0.1064,9.6133 -1.8326,1.8327 -3.3333,2 -17.9349,2 -10.0369,0 -16.9768,-0.4388 -18.75,-1.1856 -1.7742,-0.7473 -9.1005,-1.2094 -19.8151,-1.25 l -17,-0.064 -1.2439,-5 c -0.6842,-2.75 -2.6379,-13.2848 -4.3417,-23.4107 -1.7037,-10.1259 -3.4557,-19.3509 -3.8932,-20.5 -1.6195,-4.2533 -2.1172,4.8214 -1.8187,33.1613 l 0.2975,28.2507 -2.7297,-7e-4 c -1.5014,-3e-4 -4.5184,-0.7163 -6.7046,-1.591 -4.5167,-1.8072 -8.0077,-7.5817 -8.1466,-13.4753 l -0.081,-3.4343 -1.8928,4 c -3.9364,8.3185 -1.1739,17.5236 6.6318,22.0981 3.9068,2.2895 4.9216,2.4019 21.6893,2.4019 20.144,0 20.7336,0.2137 20.7336,7.5157 0,3.21 -0.6514,5.1189 -2.4496,7.1786 -2.1164,2.4242 -2.3772,2.5175 -1.9175,0.6863 z m 187.446,0.036 c 0.048,-1.1649 0.2849,-1.4019 0.6041,-0.6041 0.2889,0.7218 0.2534,1.5843 -0.079,1.9166 -0.3322,0.3323 -0.5686,-0.2583 -0.5252,-1.3125 z m -377.829,-7.1517 c 2.6125,-0.206 6.8875,-0.206 9.5,0 2.6125,0.206 0.475,0.3745 -4.75,0.3745 -5.225,0 -7.3625,-0.1685 -4.75,-0.3745 z m -22.4883,-0.9722 c 1.2439,-0.2392 3.0439,-0.2301 4,0.02 0.9561,0.2503 -0.062,0.446 -2.2617,0.4349 -2.2,-0.011 -2.9822,-0.2159 -1.7383,-0.4551 z m 89.2383,-0.2928 c 0,-0.55 0.675,-1 1.5,-1 0.825,0 1.5,0.45 1.5,1 0,0.55 -0.675,1 -1.5,1 -0.825,0 -1.5,-0.45 -1.5,-1 z m -103.7309,-0.693 c 0.9729,-0.2535 2.3229,-0.2368 3,0.037 0.677,0.274 -0.1191,0.4814 -1.7691,0.461 -1.65,-0.02 -2.2039,-0.2445 -1.2309,-0.498 z m 95.9947,-0.025 c 1.52,-0.2298 3.77,-0.2237 5,0.014 1.2299,0.2374 -0.014,0.4255 -2.7638,0.418 -2.75,-0.01 -3.7563,-0.2017 -2.2362,-0.4316 z m -106.4513,-0.9655 c 0.7219,-0.2888 1.5844,-0.2533 1.9167,0.079 0.3323,0.3323 -0.2583,0.5687 -1.3125,0.5252 -1.1649,-0.048 -1.4019,-0.2849 -0.6042,-0.6041 z m -9.5434,-1.0099 c 0.9729,-0.2535 2.3229,-0.2368 3,0.037 0.677,0.274 -0.1191,0.4814 -1.7691,0.461 -1.65,-0.02 -2.2039,-0.2445 -1.2309,-0.498 z m -10.4566,-0.9901 c 0.7219,-0.2888 1.5844,-0.2533 1.9167,0.079 0.3323,0.3323 -0.2583,0.5687 -1.3125,0.5252 -1.1649,-0.048 -1.4019,-0.2849 -0.6042,-0.6041 z m -7,-1 c 0.7219,-0.2888 1.5844,-0.2533 1.9167,0.079 0.3323,0.3323 -0.2583,0.5687 -1.3125,0.5252 -1.1649,-0.048 -1.4019,-0.2849 -0.6042,-0.6041 z m -9.0625,-0.9791 c 0.6875,-0.2774 1.8125,-0.2774 2.5,0 0.6875,0.2774 0.125,0.5044 -1.25,0.5044 -1.375,0 -1.9375,-0.227 -1.25,-0.5044 z m 363,-1 c 0.6875,-0.2774 1.8125,-0.2774 2.5,0 0.6875,0.2774 0.125,0.5044 -1.25,0.5044 -1.375,0 -1.9375,-0.227 -1.25,-0.5044 z m -355.9375,-3.0209 c 0.7219,-0.2888 1.5844,-0.2533 1.9167,0.079 0.3323,0.3323 -0.2583,0.5687 -1.3125,0.5252 -1.1649,-0.048 -1.4019,-0.2849 -0.6042,-0.6041 z m 9,-1 c 0.7219,-0.2888 1.5844,-0.2533 1.9167,0.079 0.3323,0.3323 -0.2583,0.5687 -1.3125,0.5252 -1.1649,-0.048 -1.4019,-0.2849 -0.6042,-0.6041 z m 11.9375,-0.9791 c 0.6875,-0.2774 1.8125,-0.2774 2.5,0 0.6875,0.2774 0.125,0.5044 -1.25,0.5044 -1.375,0 -1.9375,-0.227 -1.25,-0.5044 z m 13.5191,-1.0308 c 0.9729,-0.2535 2.3229,-0.2368 3,0.037 0.677,0.274 -0.1191,0.4814 -1.7691,0.461 -1.65,-0.02 -2.2039,-0.2445 -1.2309,-0.498 z m 18.4926,-1.0142 c 1.2439,-0.2392 3.0439,-0.2301 4,0.02 0.9561,0.2503 -0.062,0.446 -2.2617,0.4349 -2.2,-0.011 -2.9822,-0.2159 -1.7383,-0.4551 z m 277.9883,0.045 c 0.6875,-0.2774 1.8125,-0.2774 2.5,0 0.6875,0.2774 0.125,0.5044 -1.25,0.5044 -1.375,0 -1.9375,-0.227 -1.25,-0.5044 z m -221.0223,-1.0595 c 1.7753,-0.2209 4.9253,-0.2245 7,-0.01 2.0748,0.2165 0.6223,0.3972 -3.2277,0.4017 -3.85,0 -5.5475,-0.1727 -3.7723,-0.3936 z m 159.0848,-1.9614 c 0.7219,-0.2888 1.5844,-0.2533 1.9167,0.079 0.3323,0.3323 -0.2583,0.5687 -1.3125,0.5253 -1.1649,-0.048 -1.4019,-0.285 -0.6042,-0.6042 z m -88.3125,-3.4081 c -5.5,-1.6505 -17.65,-5.27 -27,-8.0433 -9.35,-2.7733 -17.3881,-5.4132 -17.8625,-5.8664 -0.4833,-0.4618 -0.4833,-1.9183 0,-3.3131 l 0.8625,-2.4891 17.879,5.3255 c 23.8374,7.1002 31.5564,8.9422 32.6962,7.8025 0.5098,-0.5098 2.1899,-4.5354 3.7335,-8.9458 l 2.8065,-8.0187 3.382,1.1387 c 1.8602,0.6263 3.5353,1.5982 3.7225,2.1598 0.658,1.9741 -7.2687,22.8246 -8.759,23.0399 -0.8034,0.116 -5.9607,-1.1395 -11.4607,-2.79 z m 171,-1.33 c -1.65,-0.7387 -4.4836,-2.9018 -6.2969,-4.8069 -3.1746,-3.3354 -3.2859,-3.7267 -3,-10.5465 l 0.2969,-7.0827 4,1.8948 c 2.2,1.042 5.0125,1.9099 6.25,1.9286 2.1811,0.033 2.25,0.3403 2.25,10.0339 0,5.5 -0.1125,9.9824 -0.25,9.9609 -0.1375,-0.022 -1.6,-0.6435 -3.25,-1.3821 z m -231.6275,-3.3288 c -1.2439,-1.586 -1.2085,-1.6214 0.3775,-0.3775 1.6658,1.3064 2.1955,2.1275 1.3725,2.1275 -0.2077,0 -0.9952,-0.7875 -1.75,-1.75 z m -31.1225,-11.9958 c 5.6375,-0.1783 14.8625,-0.1783 20.5,0 5.6375,0.1782 1.025,0.3241 -10.25,0.3241 -11.275,0 -15.8875,-0.1459 -10.25,-0.3241 z m -38.4809,-0.9472 c 0.9729,-0.2535 2.3229,-0.2368 3,0.037 0.677,0.274 -0.1191,0.4814 -1.7691,0.461 -1.65,-0.02 -2.2039,-0.2445 -1.2309,-0.498 z m -22.0191,-0.9963 c 0.9625,-0.2515 2.5375,-0.2515 3.5,0 0.9625,0.2515 0.175,0.4573 -1.75,0.4573 -1.925,0 -2.7125,-0.2058 -1.75,-0.4573 z m -16.4883,-1.0179 c 1.2439,-0.2392 3.0439,-0.2301 4,0.02 0.9561,0.2503 -0.062,0.446 -2.2617,0.4349 -2.2,-0.011 -2.9822,-0.2159 -1.7383,-0.4551 z m -13.5117,-0.9821 c 0.9625,-0.2515 2.5375,-0.2515 3.5,0 0.9625,0.2515 0.175,0.4573 -1.75,0.4573 -1.925,0 -2.7125,-0.2058 -1.75,-0.4573 z m -0.4375,-1.9938 c 0.7219,-0.2888 1.5844,-0.2533 1.9167,0.079 0.3323,0.3323 -0.2583,0.5687 -1.3125,0.5252 -1.1649,-0.048 -1.4019,-0.2849 -0.6042,-0.6041 z m 308.9375,-0.049 c 2.3375,-0.2105 6.1625,-0.2105 8.5,0 2.3375,0.2106 0.425,0.3828 -4.25,0.3828 -4.675,0 -6.5875,-0.1722 -4.25,-0.3828 z m -22,-0.93 c 0.6875,-0.2774 1.8125,-0.2774 2.5,0 0.6875,0.2774 0.125,0.5044 -1.25,0.5044 -1.375,0 -1.9375,-0.227 -1.25,-0.5044 z m -271.9375,-1.0209 c 0.7219,-0.2888 1.5844,-0.2533 1.9167,0.079 0.3323,0.3323 -0.2583,0.5687 -1.3125,0.5252 -1.1649,-0.048 -1.4019,-0.2849 -0.6042,-0.6041 z m 263.9375,0.021 c 0.6875,-0.2774 1.8125,-0.2774 2.5,0 0.6875,0.2774 0.125,0.5044 -1.25,0.5044 -1.375,0 -1.9375,-0.227 -1.25,-0.5044 z m -253.9375,-1.0208 c 0.7219,-0.2889 1.5844,-0.2534 1.9167,0.079 0.3323,0.3323 -0.2583,0.5686 -1.3125,0.5252 -1.1649,-0.048 -1.4019,-0.2849 -0.6042,-0.6041 z m 319.1875,0.3056 c 0,-0.2077 0.7875,-0.9952 1.75,-1.75 1.5861,-1.2439 1.6215,-1.2085 0.3776,0.3775 -1.3064,1.6658 -2.1276,2.1955 -2.1276,1.3725 z m -299.25,-2.2847 c 0.6875,-0.2774 1.8125,-0.2774 2.5,0 0.6875,0.2774 0.125,0.5044 -1.25,0.5044 -1.375,0 -1.9375,-0.227 -1.25,-0.5044 z m 11,-1 c 0.6875,-0.2774 1.8125,-0.2774 2.5,0 0.6875,0.2774 0.125,0.5044 -1.25,0.5044 -1.375,0 -1.9375,-0.227 -1.25,-0.5044 z m 218.4079,-1.3378 c 0,-1.375 0.227,-1.9375 0.5044,-1.25 0.2774,0.6875 0.2774,1.8125 0,2.5 -0.2774,0.6875 -0.5044,0.125 -0.5044,-1.25 z m -203.3454,0.3169 c 0.7219,-0.2888 1.5844,-0.2533 1.9167,0.079 0.3323,0.3323 -0.2583,0.5687 -1.3125,0.5252 -1.1649,-0.048 -1.4019,-0.2849 -0.6042,-0.6041 z m 15.9375,-1.0226 c 1.2375,-0.2383 3.2625,-0.2383 4.5,0 1.2375,0.2384 0.225,0.4334 -2.25,0.4334 -2.475,0 -3.4875,-0.195 -2.25,-0.4334 z m 119.25,-3.2629 c 0,-0.5327 -0.6499,-0.7192 -1.4443,-0.4144 -0.9979,0.383 -1.3957,-0.09 -1.2872,-1.5313 0.086,-1.1471 0.8489,-2.0925 1.6943,-2.101 1.3575,-0.014 1.3619,-0.1286 0.037,-0.9847 -1.2819,-0.8284 -1.2455,-0.9716 0.25,-0.9846 0.9625,-0.01 1.75,0.4205 1.75,0.9533 0,0.5327 0.6295,0.727 1.3989,0.4318 0.7694,-0.2952 1.6959,-0.056 2.059,0.5314 0.3631,0.5875 0.1836,1.0681 -0.3988,1.0681 -0.5825,0 -1.0058,0.3375 -0.9406,0.75 0.3256,2.0627 -0.2656,3.25 -1.6185,3.25 -0.825,0 -1.5,-0.4358 -1.5,-0.9686 z m 67.2522,-10.5314 c 0.011,-2.2 0.2159,-2.9822 0.4551,-1.7383 0.2392,1.2439 0.2301,3.0439 -0.02,4 -0.2503,0.9561 -0.446,-0.062 -0.4349,-2.2617 z m 82.0116,-2.2175 c 1.52,-0.2299 3.77,-0.2238 5,0.014 1.2299,0.2373 -0.014,0.4254 -2.7638,0.4179 -2.75,-0.01 -3.7563,-0.2017 -2.2362,-0.4316 z m -233.0138,-2.9718 c 0.9625,-0.2515 2.5375,-0.2515 3.5,0 0.9625,0.2515 0.175,0.4573 -1.75,0.4573 -1.925,0 -2.7125,-0.2058 -1.75,-0.4573 z m -15.4375,-0.9938 c 0.7219,-0.2888 1.5844,-0.2533 1.9167,0.079 0.3323,0.3323 -0.2583,0.5687 -1.3125,0.5252 -1.1649,-0.048 -1.4019,-0.2849 -0.6042,-0.6041 z m -22.5434,-1.0099 c 0.9729,-0.2535 2.3229,-0.2368 3,0.037 0.677,0.274 -0.1191,0.4814 -1.7691,0.461 -1.65,-0.02 -2.2039,-0.2445 -1.2309,-0.498 z m 124.9809,-0.3193 c -1.2375,-0.5078 -2.2449,-1.2752 -2.2388,-1.7054 0.014,-0.9485 9.6448,-26.2716 10.2051,-26.8319 0.3839,-0.3838 7.7837,1.4038 7.7837,1.8804 0,0.1302 -2.2029,6.2966 -4.8953,13.703 -5.1457,14.155 -5.8575,15.0044 -10.8547,12.9539 z m -137.4375,-0.6708 c 0.7219,-0.2888 1.5844,-0.2533 1.9167,0.079 0.3323,0.3323 -0.2583,0.5687 -1.3125,0.5252 -1.1649,-0.048 -1.4019,-0.2849 -0.6042,-0.6041 z m -26.0625,-1.9791 c 0.6875,-0.2774 1.8125,-0.2774 2.5,0 0.6875,0.2774 0.125,0.5044 -1.25,0.5044 -1.375,0 -1.9375,-0.227 -1.25,-0.5044 z m -9.9375,-1.0209 c 0.7219,-0.2888 1.5844,-0.2533 1.9167,0.079 0.3323,0.3323 -0.2583,0.5687 -1.3125,0.5252 -1.1649,-0.048 -1.4019,-0.2849 -0.6042,-0.6041 z m 2,-4 c 0.7219,-0.2888 1.5844,-0.2533 1.9167,0.079 0.3323,0.3323 -0.2583,0.5687 -1.3125,0.5252 -1.1649,-0.048 -1.4019,-0.2849 -0.6042,-0.6041 z m 25,-3 c 0.7219,-0.2888 1.5844,-0.2533 1.9167,0.079 0.3323,0.3323 -0.2583,0.5687 -1.3125,0.5252 -1.1649,-0.048 -1.4019,-0.2849 -0.6042,-0.6041 z m 13.9375,-0.9791 c 0.6875,-0.2774 1.8125,-0.2774 2.5,0 0.6875,0.2774 0.125,0.5044 -1.25,0.5044 -1.375,0 -1.9375,-0.227 -1.25,-0.5044 z m -89.1857,-1.6309 c 0.3756,-0.9862 0.9347,-1.5412 1.2426,-1.2333 0.3079,0.3079 6e-4,1.1148 -0.6828,1.7931 -0.9876,0.9803 -1.1025,0.8654 -0.5598,-0.5598 z m 106.6857,0.6038 c 0.9625,-0.2515 2.5375,-0.2515 3.5,0 0.9625,0.2515 0.175,0.4573 -1.75,0.4573 -1.925,0 -2.7125,-0.2058 -1.75,-0.4573 z m 23.5117,-1.0179 c 1.2439,-0.2392 3.0439,-0.2301 4,0.02 0.9561,0.2503 -0.062,0.446 -2.2617,0.4349 -2.2,-0.011 -2.9822,-0.2159 -1.7383,-0.4551 z m 147.1626,-7.0428 -2.4243,-2.75 2.75,2.4244 c 1.5125,1.3333 2.75,2.5708 2.75,2.75 0,0.7842 -0.8098,0.1459 -3.0757,-2.4244 z m 9.8113,-11.0139 c -7.0046,-7.0201 -12.7356,-13.09511 -12.7356,-13.50001 0,-1.4187 2.1628,-0.7137 5.4111,1.7639 1.8028,1.375 3.6852,2.5004 4.1833,2.5009 0.4981,5e-4 2.6514,1.80051 4.7851,4.00001 2.1337,2.1995 4.4962,3.9991 5.25,3.9991 0.7538,0 1.3705,0.4197 1.3705,0.9327 0,0.8347 1.6299,1.6509 4.5,2.2533 0.55,0.1155 1.7726,1.1334 2.7168,2.262 1.1971,1.4309 1.7268,1.6232 1.75,0.6354 0.038,-1.6213 1.5332,-0.4836 1.5332,1.1666 0,0.5959 0.6252,1.2917 1.3892,1.5464 0.9011,0.3004 1.1214,0.03 0.6269,-0.7703 -0.4193,-0.6785 0.4412,-0.4449 1.9122,0.5189 2.9895,1.9588 2.6067,2.6689 -2.3275,4.3186 -6.3285,2.1158 -7.0813,1.6859 -20.3652,-11.6275 z m -277.2243,2.3871 c 0.9453,-1.4427 1.9078,-2.6232 2.1389,-2.6232 0.7234,0 -1.6049,3.854 -2.7593,4.5675 -0.6041,0.3733 -0.3249,-0.5016 0.6204,-1.9443 z m 134.7578,-3.3162 c 0.9729,-0.2535 2.3229,-0.2368 3,0.037 0.677,0.274 -0.1191,0.4814 -1.7691,0.461 -1.65,-0.02 -2.2039,-0.2445 -1.2309,-0.498 z m -12.4566,-0.9901 c 0.7219,-0.2888 1.5844,-0.2533 1.9167,0.079 0.3323,0.3323 -0.2583,0.5687 -1.3125,0.5252 -1.1649,-0.048 -1.4019,-0.2849 -0.6042,-0.6041 z m -13.5434,-1.0099 c 0.9729,-0.2535 2.3229,-0.2368 3,0.037 0.677,0.274 -0.1191,0.4814 -1.7691,0.461 -1.65,-0.02 -2.2039,-0.2445 -1.2309,-0.498 z m 172.4858,-4.473 c -7.1051,-6.59661 -8.8389,-11.63421 -7.0081,-20.36241 2.3854,-11.3726 8.3438,-15.5879 23.0069,-16.2761 6.8724,-0.3226 9.688,-0.082 10.9419,0.9351 1.4523,1.178 1.5812,1.1597 0.9222,-0.1306 -1.0102,-1.9779 2.2478,1.9888 3.4907,4.25 0.8895,1.6183 0.1453,1.75 -9.8822,1.75 -15.313,0 -14.6116,-0.8752 -15.2263,19.0007 l -0.5,16.16721 z m -184.9424,3.4829 c 0.7219,-0.2888 1.5844,-0.2533 1.9167,0.079 0.3323,0.3323 -0.2583,0.5687 -1.3125,0.5252 -1.1649,-0.048 -1.4019,-0.2849 -0.6042,-0.6041 z m -23.2698,-2.2478 c -0.3164,-0.512 -0.048,-1.2565 0.5955,-1.6545 0.7037,-0.43481 0.9038,-0.29141 0.5015,0.3594 -0.3861,0.6248 0.289,1.2672 1.5955,1.5184 2.2478,0.432 2.2483,0.4363 0.074,0.5715 -1.205,0.075 -2.4499,-0.2828 -2.7663,-0.7948 z m 229.8623,-2.31911 -1.905,-2.25 2.25,1.905 c 1.2375,1.04781 2.25,2.06031 2.25,2.25001 0,0.8003 -0.8048,0.2095 -2.595,-1.90501 z m -222.5925,-0.4331 c 0.7219,-0.2888 1.5844,-0.2533 1.9167,0.079 0.3323,0.3323 -0.2583,0.5687 -1.3125,0.5252 -1.1649,-0.048 -1.4019,-0.2849 -0.6042,-0.6041 z m 166,0 c 0.7219,-0.2888 1.5844,-0.2533 1.9167,0.079 0.3323,0.3323 -0.2583,0.5687 -1.3125,0.5252 -1.1649,-0.048 -1.4019,-0.2849 -0.6042,-0.6041 z m -145,-3 c 0.7219,-0.2888 1.5844,-0.2533 1.9167,0.079 0.3323,0.3323 -0.2583,0.5687 -1.3125,0.5252 -1.1649,-0.048 -1.4019,-0.2849 -0.6042,-0.6041 z m 9,-1 c 0.7219,-0.2888 1.5844,-0.2533 1.9167,0.079 0.3323,0.3323 -0.2583,0.5687 -1.3125,0.5252 -1.1649,-0.048 -1.4019,-0.2849 -0.6042,-0.6041 z m 9.9375,-0.9791 c 0.6875,-0.2774 1.8125,-0.2774 2.5,0 0.6875,0.2774 0.125,0.5044 -1.25,0.5044 -1.375,0 -1.9375,-0.227 -1.25,-0.5044 z m 10.5191,-1.0308 c 0.9729,-0.2535 2.3229,-0.2368 3,0.037 0.677,0.274 -0.1191,0.4814 -1.7691,0.461 -1.65,-0.02 -2.2039,-0.2445 -1.2309,-0.498 z m 199.8099,-0.8903 c 0.048,-1.1649 0.2849,-1.4019 0.6041,-0.6042 0.2889,0.7219 0.2534,1.5844 -0.079,1.9167 -0.3322,0.3323 -0.5686,-0.2583 -0.5252,-1.3125 z m -185.2665,-0.1 c 0.7219,-0.2889 1.5844,-0.2533 1.9167,0.079 0.3323,0.3323 -0.2583,0.5687 -1.3125,0.5252 -1.1649,-0.048 -1.4019,-0.2849 -0.6042,-0.6041 z m -129.8125,-2.6944 c 0,-0.2077 0.7875,-0.9952 1.75,-1.75 1.5861,-1.2439 1.6215,-1.2085 0.3776,0.3775 -1.3064,1.6658 -2.1276,2.1955 -2.1276,1.3725 z m 6,-6.9354 c 0,-0.1721 1.4625,-1.6346 3.25,-3.25 l 3.25,-2.9371 -2.9371,3.25 c -2.7377,3.0295 -3.5629,3.7097 -3.5629,2.9371 z m 309.079,-1.2704 c 0.048,-1.1649 0.2849,-1.4019 0.6041,-0.6042 0.2889,0.7219 0.2534,1.5844 -0.079,1.9167 -0.3322,0.3323 -0.5686,-0.2583 -0.5252,-1.3125 z m 60.8869,-5.1667 -5.4659,-5.75 5.75,5.4659 c 5.342,5.0779 6.2081,6.0341 5.4659,6.0341 -0.1563,0 -2.7438,-2.5875 -5.75,-5.75 z m -8.0934,-8 c -1.2439,-1.586 -1.2085,-1.6214 0.3775,-0.3775 1.6658,1.3064 2.1955,2.1275 1.3725,2.1275 -0.2077,0 -0.9952,-0.7875 -1.75,-1.75 z m -138.06,-1.9331 c 0.7219,-0.2888 1.5844,-0.2533 1.9167,0.079 0.3323,0.3323 -0.2583,0.5687 -1.3125,0.5252 -1.1649,-0.048 -1.4019,-0.2849 -0.6042,-0.6041 z m -8,-1 c 0.7219,-0.2888 1.5844,-0.2533 1.9167,0.079 0.3323,0.3323 -0.2583,0.5687 -1.3125,0.5252 -1.1649,-0.048 -1.4019,-0.2849 -0.6042,-0.6041 z m 141.5925,-1.5669 -1.905,-2.25 2.25,1.905 c 1.2375,1.0478 2.25,2.0603 2.25,2.25 0,0.8003 -0.8048,0.2095 -2.595,-1.905 z m -337.905,-0.75 c 0.9955,-1.1 2.035,-2 2.31,-2 0.275,0 -0.3145,0.9 -1.31,2 -0.9955,1.1 -2.0349,2 -2.3099,2 -0.275,0 0.3144,-0.9 1.3099,-2 z m 166.9589,-2.0665 c -0.3625,-0.5866 -0.4447,-1.281 -0.1825,-1.5431 0.2621,-0.2621 0.743,0.2178 1.0687,1.0665 0.6762,1.7621 0.1,2.0721 -0.8862,0.4766 z m 18.2911,-4.5957 c 0.6875,-0.2774 1.8125,-0.2774 2.5,0 0.6875,0.2774 0.125,0.5044 -1.25,0.5044 -1.375,0 -1.9375,-0.227 -1.25,-0.5044 z m 59,0 c 0.6875,-0.2774 1.8125,-0.2774 2.5,0 0.6875,0.2774 0.125,0.5044 -1.25,0.5044 -1.375,0 -1.9375,-0.227 -1.25,-0.5044 z m 7.0625,-0.021 c 0.7219,-0.2889 1.5844,-0.2534 1.9167,0.079 0.3323,0.3322 -0.2583,0.5686 -1.3125,0.5252 -1.1649,-0.048 -1.4019,-0.285 -0.6042,-0.6042 z m -48.5434,-2.0099 c 0.9729,-0.2536 2.3229,-0.2369 3,0.037 0.677,0.2739 -0.1191,0.4814 -1.7691,0.461 -1.65,-0.02 -2.2039,-0.2445 -1.2309,-0.4981 z m 11.5434,-0.9901 c 0.7219,-0.2889 1.5844,-0.2534 1.9167,0.079 0.3323,0.3322 -0.2583,0.5686 -1.3125,0.5252 -1.1649,-0.048 -1.4019,-0.285 -0.6042,-0.6042 z m 62.06,-1.067 c -1.2439,-1.586 -1.2085,-1.6214 0.3775,-0.3775 1.6658,1.3064 2.1955,2.1275 1.3725,2.1275 -0.2077,0 -0.9952,-0.7875 -1.75,-1.75 z m -263.8725,0.3725 c 0,-0.2077 0.7875,-0.9952 1.75,-1.75 1.5861,-1.2439 1.6215,-1.2085 0.3776,0.3775 -1.3064,1.6658 -2.1276,2.1955 -2.1276,1.3725 z m 235.75,-11.2847 c 0.6875,-0.2774 1.8125,-0.2774 2.5,0 0.6875,0.2774 0.125,0.5044 -1.25,0.5044 -1.375,0 -1.9375,-0.227 -1.25,-0.5044 z m -124.9375,-41.0209 c 0.7219,-0.2888 1.5844,-0.2533 1.9167,0.079 0.3323,0.3323 -0.2583,0.5687 -1.3125,0.5252 -1.1649,-0.048 -1.4019,-0.2849 -0.6042,-0.6041 z m 6,-1 c 0.7219,-0.2888 1.5844,-0.2533 1.9167,0.079 0.3323,0.3323 -0.2583,0.5687 -1.3125,0.5252 -1.1649,-0.048 -1.4019,-0.2849 -0.6042,-0.6041 z m 79,0 c 0.7219,-0.2888 1.5844,-0.2533 1.9167,0.079 0.3323,0.3323 -0.2583,0.5687 -1.3125,0.5252 -1.1649,-0.048 -1.4019,-0.2849 -0.6042,-0.6041 z m -71,-1 c 0.7219,-0.2888 1.5844,-0.2533 1.9167,0.079 0.3323,0.3323 -0.2583,0.5687 -1.3125,0.5252 -1.1649,-0.048 -1.4019,-0.2849 -0.6042,-0.6041 z m 63,0 c 0.7219,-0.2888 1.5844,-0.2533 1.9167,0.079 0.3323,0.3323 -0.2583,0.5687 -1.3125,0.5252 -1.1649,-0.048 -1.4019,-0.2849 -0.6042,-0.6041 z m -55,-1 c 0.7219,-0.2888 1.5844,-0.2533 1.9167,0.079 0.3323,0.3323 -0.2583,0.5687 -1.3125,0.5252 -1.1649,-0.048 -1.4019,-0.2849 -0.6042,-0.6041 z m 43.9375,0.021 c 0.6875,-0.2774 1.8125,-0.2774 2.5,0 0.6875,0.2774 0.125,0.5044 -1.25,0.5044 -1.375,0 -1.9375,-0.227 -1.25,-0.5044 z m -24,-1.0699 c 2.3375,-0.2105 6.1625,-0.2105 8.5,0 2.3375,0.2105 0.425,0.3828 -4.25,0.3828 -4.675,0 -6.5875,-0.1723 -4.25,-0.3828 z"
         id="path2372"
         clip-path="url(#clipPath8337)" />
      <path
         style="fill:#0f2840;stroke-width:1.01381;stroke:none;stroke-opacity:1;fill-opacity:1"
         d="m 441.53395,729.26164 c -15.4285,-1.141 -35.4234,-4.6277 -49.4093,-8.6159 -52.2575,-14.9016 -91.3656,-37.4216 -127.826,-73.6069 -41.2814,-40.9701 -65.8822,-87.7381 -75.4239,-143.3871 -3.5853,-20.9095 -4.4909,-56.0871 -1.9749,-76.7073 7.6647,-62.8172 35.0363,-118.13374 80.4071,-162.49848 40.3206,-39.42644 88.7207,-64.87684 143.7353,-75.58078 32.1387,-6.25308 56.9233,-6.96099 88.4282,-2.5257 49.6977,6.99648 97.6692,28.08802 137.0754,60.26761 10.373,8.47066 29.6889,27.57581 38.7479,38.32505 7.9868,9.47687 21.1015,27.981 26.7804,37.7857 12.6608,21.8588 24.4669,52.2427 30.6394,78.8526 2.3022,9.925 4.82286,33.0908 5.34486,49.1198 1.2301,37.782 -4.50516,71.0944 -18.23056,105.8881 -19.4529,49.3129 -57.564,95.777 -103.4939,126.1773 -34.2855,22.6929 -76.7894,38.721 -117.8242,44.4309 -16.938,2.3569 -41.2108,3.2409 -56.9758,2.0751 z m 57.3272,-23.6028 c 42.539,-7.9627 77.6022,-22.0176 108.6197,-43.5396 14.8316,-10.2912 24.2628,-18.2408 37.9132,-31.9573 29.1157,-29.2567 46.8396,-57.5965 59.2524,-94.7422 9.5717,-28.6437 12.8921,-51.6706 12.0033,-83.2426 -0.3282,-11.6575 -1.0906,-24.6019 -1.6942,-28.7653 -6.097,-42.051 -22.6047,-80.5379 -50.5308,-117.81049 -7.5319,-10.05275 -33.9409,-36.27637 -45.2901,-44.97215 -36.8564,-28.23957 -81.3809,-47.59254 -121.0829,-52.62971 -35.1698,-4.46215 -71.5657,-2.29465 -101.3248,6.03426 -45.6721,12.78263 -84.3963,35.85746 -118.7241,70.74481 -40.6496,41.31228 -63.9685,90.15498 -70.6217,147.92108 -6.0004,52.0986 6.6617,108.1165 34.5172,152.706 40.6012,64.9922 110.8413,109.79 189.9613,121.154 13.0982,1.8812 55.1599,1.3158 67.0015,-0.9008 z m -15.186,-47.402 c -16.9594,-6.2855 -25.1705,-23.6069 -19.5281,-41.1945 2.4342,-7.5874 11.855,-16.9246 19.5103,-19.3372 12.2454,-3.8592 22.8222,-1.4094 31.7951,7.3644 16.1494,15.7912 12.3524,40.9619 -7.7265,51.22 -6.1666,3.1506 -18.1799,4.1232 -24.0508,1.9473 z m 15.325,-13.7868 c 7.094,-2.0165 12.29,-9.1138 12.29,-16.787 0,-13.8316 -15.0103,-21.8572 -27.0668,-14.4719 -6.912,4.2339 -10.1106,13.5311 -7.1066,20.6568 2.2086,5.2392 4.3255,7.4638 9.2241,9.6932 4.6326,2.1085 7.6715,2.3266 12.6593,0.9089 z m -146.0618,6.2934 c 0,-5.5142 -0.3753,-7.8585 -1.2729,-7.9499 -0.7001,-0.071 -8.1665,-0.1865 -16.5919,-0.2559 l -15.319,-0.1261 5.4424,-6.8129 c 6.8173,-8.5339 17.8932,-22.7343 25.1913,-32.2978 l 5.5842,-7.3175 h 5.3568 5.3567 v 17.5927 c 0,17.4758 0.015,17.5948 2.2913,17.9152 1.9961,0.281 2.3309,1.0051 2.5991,5.6214 0.2955,5.0879 0.2043,5.2989 -2.2913,5.2989 -2.57,0 -2.5991,0.09 -2.5991,8.0744 v 8.0745 h -6.8738 -6.8738 v -7.8203 z m 0.5025,-25.2378 -0.01,-5.8036 -2.0782,3.028 c -1.1431,1.6653 -2.7557,4.2769 -3.5837,5.8035 l -1.5054,2.7756 h 3.5904 3.5903 l -0.01,-5.8035 z m 33.6119,1.7135 v -31.3413 l 4.8505,0.3051 4.8505,0.3051 16.7892,18.0811 16.7892,18.0812 0.2776,-18.3335 0.2775,-18.3335 h 6.5963 6.5962 v 31.2885 31.2886 h -3.9044 c -3.6931,0 -4.4887,-0.642 -14.6981,-11.8594 -5.9365,-6.5226 -13.8028,-14.7985 -17.4807,-18.3907 l -6.687,-6.5313 v 18.3907 18.3907 h -7.1284 -7.1284 z m 165.3497,23.5339 c -1.752,-4.3103 -8.0207,-18.4153 -13.9305,-31.3445 l -10.745,-23.5075 7.7871,0.2935 7.7871,0.2935 7.4163,17.5632 c 4.079,9.6597 7.4163,18.1758 7.4163,18.9245 0,3.8501 2.1756,-0.3016 8.5715,-16.3574 3.8742,-9.7255 7.5531,-18.3727 8.1754,-19.2161 0.9036,-1.2248 2.6471,2.2367 8.6612,17.196 4.1414,10.3012 7.7945,18.7251 8.118,18.7197 0.3236,0 2.8294,-5.5692 5.5686,-12.364 2.7391,-6.7948 6.2618,-15.1929 7.8282,-18.6624 l 2.848,-6.3082 h 7.77 c 7.5889,0 7.7535,0.053 7.0615,2.271 -0.3897,1.249 -5.2695,11.8089 -10.844,23.4664 -5.5745,11.6575 -11.7782,24.7383 -13.786,29.0685 -3.6145,7.7954 -3.6855,7.87 -7.2064,7.5698 -3.541,-0.302 -3.579,-0.3585 -8.9952,-13.3731 -2.9916,-7.1884 -5.8093,-13.4366 -6.2617,-13.8849 -0.4523,-0.4483 -3.5643,5.4331 -6.9155,13.0698 -6.0526,13.7926 -6.1165,13.8867 -9.6163,14.152 -3.5026,0.2656 -3.5417,0.2215 -6.7086,-7.5698 z m -223.9042,-77.1785 c -2.8004,-0.5368 -6.9247,-1.3172 -9.1651,-1.7342 l -4.0733,-0.7583 6.11,-2.9412 c 5.5492,-2.6714 7.2551,-2.9721 18.5847,-3.276 l 12.4747,-0.3346 v 5.1288 5.1289 l -9.4197,-0.1187 c -5.1808,-0.065 -11.7109,-0.5579 -14.5113,-1.0947 z m 45.7216,-0.2045 c -0.302,-0.7798 -0.4022,-2.9372 -0.2227,-4.7942 l 0.3264,-3.3763 13.493,-0.2817 13.493,-0.2816 v 3.1236 c 0,6.6411 -0.7888,7.0281 -14.3246,7.0281 -9.5515,0 -12.3359,-0.3093 -12.7651,-1.4179 z m 48.1353,0.745 c -0.8482,-0.8408 -0.8859,-5.6923 -0.061,-7.8237 0.5197,-1.3423 2.7218,-1.5965 13.8285,-1.5965 h 13.2104 l -0.7105,3.2803 c -1.4785,6.825 -1.4531,6.8128 -14.0833,6.8128 -6.328,0 -11.8109,-0.3028 -12.1843,-0.6729 z m 47.1831,-4.3737 v -5.0465 h 13.7476 c 15.0813,0 15.3191,0.1161 12.2577,5.9837 -1.9945,3.8228 -3.0683,4.1094 -15.396,4.1094 h -10.6093 z m 47.8619,0 v -5.0465 h 13.2384 c 14.6695,0 14.5666,-0.058 11.7629,6.5929 l -1.4755,3.5002 h -11.7629 -11.7629 z m 47.5405,4.3383 c -0.3075,-0.4931 -0.3006,-2.8064 0.015,-5.1407 l 0.5744,-4.2441 h 13.4271 c 12.8289,0 13.686,0.1312 19.2376,2.9452 l 5.8105,2.9453 -5.3695,1.7287 c -5.9432,1.9133 -32.7281,3.3168 -33.6954,1.7656 z m -269.674,-27.5705 c -2.595,-0.4345 -6.0319,-1.6139 -7.6376,-2.6209 -4.4355,-2.7815 -13.6119,-10.611 -13.6119,-11.6138 0,-0.4926 15.8785,-0.8867 35.7208,-0.8867 h 35.7208 l -4.6218,-5.2366 c -2.5419,-2.8801 -6.0207,-7.838 -7.7306,-11.0176 l -3.1088,-5.781 -7.878,-0.6366 c -4.3329,-0.3502 -9.7111,-0.8216 -11.9514,-1.0475 -34.7345,-3.5033 -41.2247,-4.6138 -34.4696,-5.8979 6.6972,-1.2732 18.1384,-2.8559 33.2319,-4.5971 8.8408,-1.0198 16.258,-2.0365 16.4827,-2.2592 0.2247,-0.2227 0.1632,-2.2175 -0.1366,-4.4329 -0.477,-3.5245 -1.042,-4.2382 -4.5207,-5.7107 -2.1865,-0.9255 -4.2591,-2.4151 -4.6056,-3.3102 -0.3466,-0.8951 1.311,-7.0837 3.6836,-13.7524 2.3725,-6.6688 4.147,-12.288 3.9432,-12.4871 -0.2038,-0.1992 -5.8695,-0.8777 -12.5906,-1.5077 -6.721,-0.6301 -14.7404,-1.5448 -17.8209,-2.0327 -3.0805,-0.4878 -8.2744,-1.1854 -11.5421,-1.5501 -3.2676,-0.3647 -5.7089,-0.8932 -5.4252,-1.1745 0.9066,-0.8985 24.6466,-4.2056 39.365,-5.4837 l 14.2322,-1.2358 7.846,-8.6653 7.846,-8.6653 -9.1038,-0.2228 c -29.6115,-0.7245 -89.5431,-6.0376 -93.9635,-8.3301 -0.7458,-0.3868 3.3785,-1.2734 9.165,-1.9704 22.9716,-2.7666 50.0696,-4.1808 89.4423,-4.6677 22.6835,-0.2806 45.1379,-0.7902 49.8987,-1.1325 l 8.6558,-0.6223 -10.6925,-3.3387 c -13.2654,-4.1421 -15.802,-6.4453 -14.9501,-13.5745 l 0.5625,-4.7074 -38.8861,-0.6236 c -35.4873,-0.569 -52.8848,-1.3219 -77.0737,-3.3353 -7.4225,-0.6178 -8.148,-0.832 -5.0917,-1.5034 12.8808,-2.8296 68.7292,-7.4476 102.8522,-8.5045 20.8963,-0.6473 23.4084,-0.9414 23.4515,-2.7456 0.016,-0.6834 1.3343,-4.4218 2.9289,-8.3076 1.8119,-4.4156 2.5124,-7.3087 1.8679,-7.7145 -0.5671,-0.3572 -7.9569,-0.9472 -16.4218,-1.3112 -18.9097,-0.8132 -47.3981,-2.4453 -53.5784,-3.0696 -2.5204,-0.2546 -10.998,-0.9811 -18.8393,-1.6145 -7.8412,-0.6333 -14.867,-1.4801 -15.6129,-1.8816 -3.1788,-1.7114 34.4735,-5.5715 69.0758,-7.0817 13.7221,-0.599 28.6751,-1.3426 33.2289,-1.6525 l 8.2795,-0.5635 3.0795,-8.9218 3.0795,-8.9218 -4.7399,-0.5444 c -2.6069,-0.2995 -8.4058,-0.8067 -12.8865,-1.1271 -24.0176,-1.7175 -54.6877,-4.4154 -55.1254,-4.8492 -1.3245,-1.31285 34.2453,-6.03421 58.6896,-7.79015 8.6813,-0.62361 16.7501,-1.51686 17.9306,-1.98498 1.2404,-0.49185 2.4008,-2.11176 2.749,-3.83751 0.7704,-3.81768 5.8291,-8.85156 9.6579,-9.61052 3.8592,-0.765 2.3125,-1.16817 42.9829,11.20417 28.4603,8.65792 36.1861,10.65177 40.6793,10.49839 6.679,-0.22799 7.628,-0.9847 6.0523,-4.82586 -1.7613,-4.29354 -1.499,-19.2516 0.427,-24.35271 l 1.6064,-4.25453 -3.252,-0.51339 c -1.7886,-0.28235 -8.2927,-1.21861 -14.4537,-2.08056 -21.4454,-3.00034 -27.6664,-4.20703 -24.9493,-4.83945 7.4555,-1.73534 26.8898,-4.27657 40.7336,-5.32629 7.0413,-0.53393 9.5106,-1.18929 13.2384,-3.51346 16.3049,-10.16576 31.4121,-11.61464 45.9347,-4.4054 6.6939,3.32298 10.8974,7.1205 15.2216,13.75152 5.6312,8.6354 7.445,16.52371 6.8415,29.7541 -0.538,11.79533 -1.7012,15.68753 -7.7696,25.99863 -6.4889,11.0254 -17.3972,18.9375 -28.1167,20.3937 l -4.6163,0.6271 v 9.9184 9.9183 l 22.658,0.2899 22.6581,0.2898 6.6192,-4.145 c 8.1072,-5.0769 12.062,-6.4527 18.549,-6.4527 5.3265,0 8.0572,1.0087 11.7466,4.3393 2.2527,2.0336 2.2912,2.47 2.2912,25.94 v 23.8715 l -2.5192,2.3457 c -1.8073,1.6827 -4.2176,2.5169 -8.5286,2.9515 l -6.0093,0.6058 3.1823,7.0652 c 4.321,9.5933 4.3166,9.5884 8.6584,9.5884 8.3247,0 19.476,4.5532 27.0379,11.0399 l 4.6949,4.0274 -2.627,1.706 -2.627,1.7061 4.5565,4.6382 c 12.256,12.4762 17.6212,31.7643 13.3532,48.0051 -2.1281,8.0976 -6.7173,17.3286 -11.1811,22.4905 l -3.7096,4.2896 7.9715,0.041 7.9715,0.041 -4.5825,4.1416 c -5.4696,4.9434 -14.7429,9.4753 -22.2923,10.8943 -6.5316,1.2277 -339.151,1.2303 -346.4821,0 z m 105.1187,-19.3753 c 7.1899,-3.3018 14.5544,-9.8755 18.2843,-16.321 1.6432,-2.8393 2.9918,-5.5584 2.9971,-6.0423 0,-0.4839 -2.9991,2.3409 -6.6763,6.2774 -4.8238,5.164 -8.5758,8.0795 -13.4716,10.4683 -6.152,3.0018 -7.6456,3.311 -15.9936,3.311 -8.3516,0 -9.8401,-0.3085 -16.0067,-3.3174 -10.5482,-5.1468 -19.0449,-16.289 -20.7525,-27.2142 -0.6652,-4.2559 -0.6461,-4.2895 2.4424,-4.2895 2.8924,0 3.2269,0.3885 4.7215,5.4841 2.7575,9.4013 12.2956,19.4048 20.7106,21.7211 11.2311,3.0915 22.5023,0.039 30.6126,-8.2896 l 4.4161,-4.5352 -15.6178,-0.4595 c -11.7121,-0.3446 -16.6366,-0.8941 -19.6913,-2.1972 -4.6025,-1.9635 -9.2116,-5.9615 -11.1884,-9.7051 l -1.3325,-2.5233 20.0081,0.2591 c 22.5567,0.2921 23.7156,0.021 27.024,-6.3149 5.1398,-9.8439 2.5799,-23.9438 -5.692,-31.3507 -6.8218,-6.1084 -12.0753,-7.8674 -23.7275,-7.9447 -9.3875,-0.062 -10.7007,0.1789 -16.8026,3.0867 -19.2815,9.1884 -27.4325,30.4316 -20.3659,53.0784 3.5905,11.5069 11.7071,21.1587 22.2432,26.4504 9.7694,4.9067 23.6472,5.0575 33.8588,0.3681 z m 179.6557,-1.335 c -6.2539,-7.61 -8.97,-13.1978 -11.1427,-22.9241 -0.4729,-2.1169 -1.2195,-2.7755 -3.1464,-2.7755 -2.494,0 -2.5265,-0.1117 -2.5265,-8.6858 0,-16.2653 5.0166,-28.4713 16.5351,-40.2319 3.7877,-3.8673 6.8867,-7.5535 6.8867,-8.1917 0,-1.2496 -9.062,-20.6073 -9.647,-20.6073 -0.1938,0 -0.8895,3.156 -1.5459,7.0134 -1.5393,9.045 -6.2946,18.704 -14.1872,28.817 -5.0066,6.4151 -6.1844,8.593 -5.731,10.5977 1.9049,8.4226 1.7924,12.7603 -0.4656,17.9628 -2.4735,5.6987 -6.742,9.9858 -13.5131,13.5719 -4.2656,2.2591 -4.6846,2.2794 -52.8425,2.5664 l -48.5428,0.2892 -4.5656,9.2992 c -2.5111,5.1145 -6.4825,11.4566 -8.8253,14.0934 l -4.2597,4.7942 h 81.0562 81.0563 z m 50.3948,1.9852 c 5.3535,-2.461 12.2201,-7.9468 12.2201,-9.7629 0,-0.4724 -1.7697,0.5507 -3.9326,2.2734 -5.0248,4.0022 -11.9288,6.0469 -20.4148,6.0458 -12.1623,-10e-4 -23.3843,-7.3661 -28.8926,-18.9614 -2.4968,-5.2561 -3.8323,-6.6293 -5.1637,-5.3097 -1.7934,1.7775 2.5066,11.1092 7.7285,16.7722 7.7957,8.4541 14.232,11.3164 25.7259,11.4404 5.6105,0.061 8.3209,-0.4714 12.7292,-2.4978 z m 0.1815,-10.4748 c 2.6714,-1.178 6.6226,-4.2001 8.9949,-6.8799 2.3269,-2.6284 5.2238,-5.0248 6.4376,-5.3252 2.9305,-0.7254 5.0197,-8.5424 4.3876,-16.4167 -1.423,-17.7265 -18.2657,-30.7708 -35.5752,-27.5523 l -3.5539,0.6608 4.5422,10.2292 c 2.4981,5.626 5.8533,13.7901 7.4559,18.1423 3.3186,9.0126 3.3104,9.0223 -5.7414,6.7632 l -4.6076,-1.1499 -6.6002,-13.7374 c -7.4156,-15.4346 -7.0596,-15.2985 -12.1739,-4.6536 -4.5142,9.3962 -2.7201,23.4281 4.1343,32.335 2.9178,3.7914 10.1091,8.3726 15.1445,9.6477 4.6874,1.187 11.6965,0.3441 17.1552,-2.0632 z m -184.8482,-30.1977 c 10.4935,-7.534 15.9327,-17.88 15.989,-30.4126 0.028,-6.3109 -0.4533,-8.5731 -2.8961,-13.6036 -3.5521,-7.315 -10.4607,-14.383 -17.3281,-17.728 -5.026,-2.4481 -5.4467,-2.4801 -32.5869,-2.4801 -25.618,0 -27.989,0.1539 -34.7281,2.2548 -6.0723,1.893 -19.5202,9.9194 -18.43,11 0.1668,0.1652 3.2596,-0.8915 6.873,-2.3484 8.8043,-3.5497 24.1879,-4.4126 33.1186,-1.8578 13.3421,3.8169 23.4306,12.2503 29.153,24.3701 2.7328,5.7882 3.1545,7.7948 3.1302,14.8959 -0.02,5.7714 -0.6403,9.7789 -2.0916,13.5054 l -2.0635,5.2989 h 8.9144 c 8.1976,0 9.2386,-0.2328 12.9461,-2.8946 z m 134.2297,-2.9089 c 1.0195,-6.8717 6.1939,-17.0132 11.2245,-21.9992 2.7933,-2.7685 4.0455,-4.7428 3.5313,-5.5675 -0.8639,-1.3853 -5.669,2.0387 -9.3241,6.6443 -3.532,4.4504 -7.1307,13.6876 -7.6826,19.7199 -0.6658,7.2773 1.2017,8.2749 2.2509,1.2025 z m -63.3831,-4.2824 6.8531,-0.01 2.1802,-4.2896 c 2.7427,-5.3965 7.3696,-11.1329 17.4686,-21.658 9.1393,-9.5249 11.9069,-14.6914 11.9387,-22.287 0.045,-10.7495 -7.3205,-19.1442 -20.8246,-23.7344 -1.6962,-0.5765 -10.1674,-1.3108 -18.825,-1.6317 -15.7117,-0.5823 -15.7423,-0.5881 -16.4465,-3.1067 -0.9383,-3.3558 -0.9103,-54.3063 0.032,-57.5305 0.6791,-2.3243 0.7856,-2.3641 1.3509,-0.5046 0.3375,1.1102 1.363,6.7875 2.2788,12.6163 2.526,16.0762 5.7677,32.5977 6.774,34.5239 0.7775,1.4882 3.2774,1.7928 18.4542,2.2488 9.6551,0.2901 26.0512,0.7916 36.4358,1.1144 18.1966,0.5657 18.9503,0.5111 20.7911,-1.5049 2.2615,-2.4767 2.4938,-7.3164 0.4674,-9.7381 -2.7977,-3.3435 -7.6442,-4.4394 -19.6322,-4.4394 -14.5846,0 -32.334,-1.7428 -33.9645,-3.3349 -0.7627,-0.7447 -1.6488,-7.3086 -2.3112,-17.119 -1.2782,-18.9336 -3.1134,-24.963 -9.2778,-30.4828 -4.8498,-4.3426 -7.7984,-5.5846 -13.2585,-5.5846 -10.7635,0 -14.0628,4.8363 -25.8209,37.8491 -3.1634,8.8819 -8.7031,24.2734 -12.3104,34.2033 -3.6073,9.93 -6.5587,19.3392 -6.5587,20.9095 0,3.6684 5.3256,9.0565 10.7496,10.8757 2.6602,0.8922 11.7527,1.5146 26.9289,1.8435 12.6019,0.2731 23.3137,0.8716 23.8038,1.3301 0.4956,0.4636 -1.1494,3.4433 -3.7058,6.7127 -2.5284,3.2335 -6.6511,9.5126 -9.1616,13.9535 -5.2397,9.2687 -15.0098,28.4041 -15.0098,29.3975 0,0.368 3.0933,0.3794 6.8738,0.025 3.7806,-0.3538 9.9577,-0.6466 13.7269,-0.6506 z m 108.7284,-29.6193 c 6.9445,0.1477 7.4018,0.04 5.0392,-1.1889 -1.429,-0.7432 -6.6275,-1.7902 -11.5521,-2.3265 -4.9246,-0.5364 -9.4283,-1.4454 -10.0082,-2.0202 -0.5799,-0.5748 -4.4004,-8.6847 -8.4898,-18.0221 -6.9024,-15.7598 -9.4866,-19.9617 -11.2201,-18.2435 -0.6684,0.6624 2.5147,8.4253 13.0686,31.8715 l 5.1442,11.4281 5.1904,-0.8304 c 2.8546,-0.4568 8.6271,-0.7573 12.8278,-0.668 z m -171.3412,-56.1487 c 2.331,-6.6447 3.9159,-12.273 3.5221,-12.5074 -1.688,-1.0044 -58.5436,-18.8591 -58.9071,-18.4988 -0.6448,0.6391 -8.5102,24.2039 -8.5102,25.4968 0,0.6467 2.635,1.9253 5.8555,2.8413 3.2205,0.916 15.7079,4.5872 27.7497,8.1584 12.0419,3.5711 22.8298,6.515 23.9731,6.542 1.7523,0.041 2.7446,-1.8488 6.3169,-12.0323 z m 160.1395,-7.6001 c 0,-9.1595 -0.3437,-16.643 -0.7638,-16.63 -2.285,0.071 -11.0792,5.8899 -12.1664,8.0509 -1.7239,3.4264 -0.9446,14.2481 1.2669,17.5933 1.5782,2.3873 9.0341,7.6065 10.8995,7.6298 0.4201,0 0.7638,-7.4845 0.7638,-16.644 z m -149.5086,-19.1811 c 0.639,-1.3902 0.9729,-2.6753 0.7419,-2.8558 -0.4001,-0.3126 -39.1045,-12.6168 -54.5915,-17.3547 l -7.3278,-2.2418 -1.0366,2.9472 c -0.8612,2.4487 -0.7414,3.0615 0.7086,3.623 5.6023,2.1694 57.0419,18.2877 58.5395,18.343 0.9922,0.037 2.3268,-1.0708 2.9659,-2.4609 z m 10.1155,-28.8063 c 4.8856,-13.4384 5.3218,-16.1036 2.6354,-16.1036 -1.166,0 -13.3221,-3.7036 -52.8182,-16.09202 l -5.7657,-1.80847 -2.2338,5.66999 c -4.2632,10.8214 -8.1154,22.6738 -7.5579,23.2541 0.8167,0.8502 58.8356,19.1339 59.9023,18.8772 0.4954,-0.1192 3.1224,-6.3279 5.8379,-13.7972 z m 77.4108,-8.1889 c 2.1653,-0.643 3.9369,-1.5457 3.9369,-2.006 0,-0.4603 -1.7527,-1.9335 -3.895,-3.2739 -2.1423,-1.3403 -5.5792,-4.0113 -7.6376,-5.9353 l -3.7425,-3.4984 v -14.81395 c 0,-14.38269 0.073,-14.88611 2.4996,-17.29137 2.3378,-2.31708 3.1945,-2.47739 13.2384,-2.47739 5.9064,0 10.7389,-0.35071 10.7389,-0.77935 0,-2.26313 -6.9183,-8.54717 -12.3974,-11.26083 -7.9681,-3.94639 -15.2657,-4.17723 -22.7567,-0.71984 -10.9808,5.06807 -15.9843,13.23949 -16.162,26.39436 -0.1367,10.12651 0.1503,10.61051 15.0312,25.34787 12.2299,12.1121 13.3128,12.6402 21.1462,10.3141 z m 14.5231,-16.2415 c 1.9655,-3.04032 3.5291,-9.2323 3.8867,-15.39194 l 0.293,-5.04653 -8.4013,-0.29315 -8.4012,-0.29314 v 7.28775 7.28777 l 4.7239,4.36004 c 2.5981,2.3981 5.1079,4.3601 5.5773,4.3601 0.4695,0 1.5142,-1.0219 2.3216,-2.2709 z"
         id="path932" />
    </g>
  </g>
</svg>
